<svg width="400" height="401" viewBox="0 0 400 401" xmlns="http://www.w3.org/2000/svg" xmlns:xlink="http://www.w3.org/1999/xlink"><defs><path id="a" d="M90 0H0v44h90V0z"/><path id="c" d="M0 35h90V0H0z"/><path id="e" d="M0 0v78h51V0z"/><path id="g" d="M0 0h43v48H0V0z"/><path id="i" d="M43 33H0V0h43v33z"/><path id="k" d="M0 84V0h35v84z"/><path id="m" d="M39 78V0H0v78h39z"/><path id="o" d="M49 0v84H0V0h49z"/></defs><g fill="none" fill-rule="evenodd"><path d="M260 57c0 16.57-13.43 30-30 30s-30-13.43-30-30 13.43-30 30-30 30 13.43 30 30m51 302c0 16.57-13.43 30-30 30s-30-13.43-30-30 13.43-30 30-30 30 13.43 30 30M78 170c0 16.57-13.43 30-30 30s-30-13.43-30-30 13.43-30 30-30 30 13.43 30 30m92 37l45-78 45 78" fill="#000"/><g transform="translate(51)"><mask id="b" fill="#fff"><use xlink:href="#a"/></mask><path fill="#000" mask="url(#b)" d="M0 44l45-78 45 78"/></g><g transform="translate(51 366)"><mask id="d" fill="#fff"><use xlink:href="#c"/></mask><path fill="#000" mask="url(#d)" d="M0 78L45 0l45 78"/></g><g transform="translate(0 234)"><mask id="f" fill="#fff"><use xlink:href="#e"/></mask><path fill="#000" mask="url(#f)" d="M-39 78L6 0l45 78"/></g><path d="M249.42 300.17c.17.26.3.54.4.85.6 1.8-.38 3.73-2.18 4.33-22.88 7.48-48.23-1.25-61.66-21.23-5.1-7.58-8.2-16.36-8.97-25.4-.1-1.88 1.3-3.55 3.2-3.7 1.9-.17 3.6 1.23 3.7 3.12.7 7.88 3.4 15.54 7.9 22.16 11.7 17.44 33.9 25.06 53.8 18.53 1.5-.5 3.1.1 4 1.34M38.5 381h-.2c-1.9-.12-3.4-1.73-3.27-3.6 1.5-23.83 18.9-44.04 42.5-49.16 9-1.94 18.3-1.6 27.1.97 1.8.6 2.9 2.5 2.3 4.3-.5 1.8-2.4 2.9-4.3 2.3-7.6-2.2-15.7-2.5-23.6-.8-20.6 4.5-35.8 22.1-37.1 42.9-.1 1.8-1.6 3.2-3.4 3.2" fill="#000"/><g transform="translate(319)"><mask id="h" fill="#fff"><use xlink:href="#g"/></mask><path d="M3.45 48c-1.48 0-2.85-.95-3.3-2.43-.55-1.8.48-3.7 2.3-4.24 7.63-2.27 14.62-6.47 20.22-12.14 14.76-15 17.7-38.1 7.13-56.1-.95-1.7-.38-3.7 1.27-4.7s3.76-.4 4.7 1.2c12.1 20.7 8.75 47.1-8.16 64.2-6.4 6.5-14.4 11.3-23.1 13.9-.3.1-.6.1-1 .1" fill="#000" mask="url(#h)"/></g><g transform="translate(319 368)"><mask id="j" fill="#fff"><use xlink:href="#i"/></mask><path d="M3.45 80c-1.48 0-2.85-.95-3.3-2.43-.55-1.8.48-3.7 2.3-4.24 7.63-2.27 14.62-6.47 20.22-12.14 14.76-15 17.7-38.1 7.13-56.1-.95-1.7-.38-3.7 1.27-4.7s3.76-.4 4.7 1.2c12.1 20.7 8.75 47.1-8.16 64.2-6.4 6.5-14.4 11.3-23.1 13.9-.3.1-.6.1-1 .1" fill="#000" mask="url(#j)"/></g><path d="M126.58 174c-1.05 0-2.08-.48-2.75-1.38l-17.15-23.13c-1.13-1.6-.82-3.7.7-4.9s3.66-.8 4.8.7l17.14 23.1c1.13 1.5.82 3.7-.7 4.8-.6.4-1.33.7-2.04.7m162.88-85c-1.28 0-2.52-.7-3.1-1.9-.85-1.7-.13-3.7 1.6-4.5l26.08-12.3c1.7-.8 3.78-.1 4.6 1.5.85 1.6.13 3.6-1.6 4.4l-26.08 12.3c-.48.2-1 .3-1.5.3M195.4 386c-1.07 0-2.12-.5-2.78-1.42-1.08-1.52-.7-3.62.8-4.7l23.24-16.27c1.53-1 3.64-.7 4.72.9 1.08 1.5.7 3.6-.8 4.7l-23.24 16.3c-.6.4-1.28.6-1.95.6m105.1-137c-.5 0-.9-.1-1.4-.2l-27.1-11c-1.8-.7-2.7-2.7-1.9-4.5.7-1.8 2.7-2.6 4.5-1.9l27 11.1c1.8.7 2.62 2.7 1.9 4.5-.56 1.35-1.86 2.17-3.2 2.17M72.2 299c-1.8 0-3.3-1.46-3.4-3.3l-.8-26.3c-.03-.94.33-1.86 1-2.53.67-.67 1.58-1.05 2.54-1l22.63.73-.73-22.63c-.03-.95.33-1.86 1-2.53.67-.67 1.6-1.05 2.53-1l22.63.73-.73-22.63c-.03-.95.33-1.87 1-2.54.67-.67 1.58-1.04 2.53-1l26.28.85c1.9.06 3.38 1.65 3.32 3.54-.06 1.8-1.67 3.4-3.54 3.3l-22.62-.8.73 22.6c.03.9-.33 1.8-1 2.5-.67.6-1.6 1-2.54 1l-22.63-.8.73 22.6c.03.9-.33 1.8-1 2.5-.67.7-1.58 1-2.53 1l-22.63-.7.73 22.6c.06 1.9-1.43 3.4-3.32 3.5h-.1m222 21c-1.85 0-3.37-1.5-3.43-3.3l-.85-26.3c-.03-1 .33-1.9 1-2.6.67-.68 1.6-1.06 2.54-1l22.63.72-.73-22.65c-.04-.96.33-1.87 1-2.54.67-.7 1.6-1.1 2.53-1l22.63.7-.73-22.63c-.03-.94.33-1.85 1-2.5.67-.64 1.62-1 2.53-1l26.3.9c1.88.1 3.36 1.64 3.3 3.53-.06 1.9-1.67 3.4-3.54 3.3l-22.62-.7.73 22.6c.03.96-.34 1.88-1 2.55-.67.7-1.6 1.1-2.54 1l-22.63-.7.73 22.65c.03.94-.33 1.85-1 2.52-.67.67-1.6 1.05-2.53 1l-22.63-.73.73 22.63c.06 1.9-1.43 3.48-3.32 3.54h-.1" fill="#000"/><g transform="translate(0 68)"><mask id="l" fill="#fff"><use xlink:href="#k"/></mask><path d="M-44.73 84c-1.84 0-3.36-1.46-3.42-3.3L-49 54.4c-.03-.94.33-1.86 1-2.53.67-.67 1.6-1.02 2.54-1l22.63.73-.73-22.63c-.03-.95.33-1.86 1-2.53.67-.67 1.58-1.04 2.53-1l22.63.72-.73-22.62c-.03-.95.33-1.87 1-2.54C3.54.33 4.45-.02 5.4 0l26.28.85C33.58.9 35.06 2.5 35 4.4c-.06 1.88-1.65 3.34-3.54 3.3L8.83 6.97l.74 22.63c.03.94-.34 1.86-1 2.53-.67.67-1.58 1.03-2.54 1l-22.63-.73.73 22.63c.03.95-.33 1.86-1 2.53-.67.67-1.57 1.04-2.53 1l-22.63-.73.73 22.63c.06 1.9-1.42 3.48-3.32 3.54h-.1" fill="#000" mask="url(#l)"/></g><g transform="translate(361 234)"><mask id="n" fill="#fff"><use xlink:href="#m"/></mask><path fill="#000" mask="url(#n)" d="M0 78L45 0l45 78"/></g><g transform="translate(351 68)"><mask id="p" fill="#fff"><use xlink:href="#o"/></mask><path d="M4.27 84C2.43 84 .9 82.54.85 80.7L0 54.4c-.03-.94.33-1.86 1-2.53.67-.67 1.6-1.02 2.54-1l22.63.73-.73-22.63c-.03-.95.33-1.86 1-2.54.67-.66 1.6-1.02 2.53-1l22.63.73-.73-22.62c-.03-.95.33-1.87 1-2.54.67-.67 1.62-1.02 2.53-1l26.3.85C82.57.9 84.05 2.5 84 4.4c-.06 1.88-1.67 3.34-3.54 3.3l-22.62-.73.73 22.63c.03.94-.33 1.86-1 2.53-.67.67-1.6 1.03-2.54 1L32.4 32.4l.73 22.63c.03.95-.33 1.86-1 2.53-.67.67-1.6 1.03-2.53 1l-22.63-.73.73 22.63c.06 1.9-1.43 3.48-3.32 3.54h-.1" fill="#000" mask="url(#p)"/></g><path d="M64.48 112c-.3 0-.6-.05-.9-.16-1.27-.5-1.9-1.9-1.4-3.16 3.26-8.43 9.44-14.83 17.37-18.04 10.1-4.08 22.38-2.93 36.47 3.4 8.58 3.88 15.58 4.4 20.8 1.58 7.7-4.18 9.24-14.4 9.25-14.5.2-1.35 1.45-2.28 2.8-2.1 1.35.2 2.3 1.43 2.1 2.76-.07.52-1.9 12.78-11.77 18.13-6.66 3.7-15.15 3.2-25.24-1.4-12.8-5.7-23.74-6.8-32.53-3.3-9 3.7-13.03 11.1-14.64 15.3-.4 1-1.4 1.6-2.4 1.6m256 98h-.5c-.5-.1-12.9-2.6-17.8-12.7-3.4-6.8-2.4-15.2 2.8-25 6.5-12.4 8.3-23.2 5.2-32.1-3.2-9.1-10.7-13.5-14.8-15.4-1.3-.5-1.8-2-1.3-3.2.5-1.2 2-1.8 3.3-1.2 8.4 3.7 14.6 10.2 17.4 18.26 3.6 10.24 1.7 22.4-5.5 36-4.4 8.3-5.4 15.2-2.8 20.54 3.8 7.85 14.2 10 14.3 10 1.3.3 2.2 1.6 1.9 2.9-.2 1.2-1.27 2-2.4 2M190.2 357c-.58 0-1.17-.03-1.77-.08-7.52-.72-14.25-5.88-19.98-15.36-7.28-12.02-15.66-19.1-24.9-21.07-9.45-2-17 2-20.68 4.5-1.12.8-2.65.5-3.43-.6-.78-1.2-.5-2.7.62-3.5 7.46-5.3 16.16-7.2 24.5-5.4 10.63 2.2 20.08 10.1 28.1 23.3 4.88 8 10.34 12.4 16.23 13 8.7.8 15.7-6.9 15.8-7 .9-1 2.4-1.1 3.5-.2 1 .9 1 2.5.1 3.5-.4.4-7.9 8.7-18.2 8.7" fill="#000"/></g></svg>
