<svg width="400" height="399" viewBox="0 0 400 399" xmlns="http://www.w3.org/2000/svg" xmlns:xlink="http://www.w3.org/1999/xlink"><title>squiggly</title><defs><path id="a" d="M0 1h29v21H0V1z"/><path id="c" d="M0 16V0h18v16H0z"/><path id="e" d="M0 17V1h24v16H0z"/><path id="g" d="M1 1h14v5H1V1z"/><path id="i" d="M0 1h13v13H0V1z"/><path id="k" d="M0 14V1h14v13H0z"/><path id="m" d="M0 49V0h32v49H0z"/><path id="o" d="M29 0v16H1V0h28z"/><path id="q" d="M30 1v16H1V1h29z"/><path id="s" d="M12 1v13H0V1h12z"/><path id="u" d="M80 0v49H0V0h80z"/><path id="w" d="M1 1h48v91H1V1z"/><path id="y" d="M29 22H0V1h29v21z"/><path id="A" d="M15 20H1V0h14v20z"/><path id="C" d="M13 13H0V0h13z"/><path id="E" d="M49 17H1V1h48v16z"/></defs><g fill="none" fill-rule="evenodd"><path d="M232.98 382c-1.53 0-2.98-.9-3.64-2.4-.9-2 .02-4.37 2.03-5.26l36.05-16c2-.9 4.35.02 5.24 2.05.9 2-.02 4.3-2.03 5.2l-36.05 16c-.52.2-1.07.3-1.6.3m-26-202c-1.08 0-2.16-.5-2.95-1.3l-26.97-29c-1.5-1.6-1.4-4.2.24-5.7 1.63-1.5 4.17-1.4 5.67.2l26.97 29c1.5 1.6 1.4 4.1-.24 5.6-.77.7-1.74 1-2.72 1M323.02 55c-.43 0-.87-.07-1.3-.22-2.1-.7-3.22-2.96-2.5-5.03l12.96-37.08c.72-2.07 3-3.16 5.1-2.45 2.1.7 3.22 2.96 2.5 5.03l-12.96 37.08c-.57 1.64-2.13 2.67-3.8 2.67M290 279c-.55 0-1.1-.1-1.64-.35l-36.02-16.12c-2-.9-2.9-3.24-1.98-5.22.9-1.9 3.27-2.8 5.28-1.9l36.02 16.1c2 .9 2.9 3.3 1.98 5.2-.66 1.5-2.12 2.3-3.63 2.3M76 268c-.9 0-1.8-.3-2.56-.9l-30.9-25.04c-1.74-1.4-2-3.9-.57-5.6 1.4-1.7 3.96-1.95 5.68-.56l30.93 25.04c1.73 1.4 1.98 3.9.56 5.6-.8.96-1.96 1.46-3.13 1.46m269-76c-.2 0-.5-.02-.7-.08l-39-7.77c-2.1-.44-3.6-2.6-3.1-4.82.5-2.23 2.6-3.68 4.7-3.25l39 7.77c2.2.43 3.6 2.6 3.2 4.82-.4 1.97-2 3.33-3.9 3.33M137.9 376c-2.18 0-4-1.7-4.1-3.85L132 332.2c-.1-2.2 1.66-4.1 3.92-4.2 2.27-.1 4.17 1.63 4.28 3.86l1.8 39.93c.1 2.2-1.66 4.1-3.92 4.2h-.18" fill="#000"/><g transform="translate(183 -1)"><mask id="b" fill="#fff"><use xlink:href="#a"/></mask><path d="M4.04 22c-.72 0-1.45-.2-2.1-.6-1.9-1.14-2.5-3.6-1.34-5.5l20.9-34c1.17-1.9 3.66-2.5 5.56-1.33 1.9 1.15 2.5 3.62 1.35 5.5L7.5 20.1C6.72 21.32 5.4 22 4.03 22" fill="#000" mask="url(#b)"/></g><g transform="translate(0 132)"><mask id="d" fill="#fff"><use xlink:href="#c"/></mask><path d="M-24 16c-1.87 0-3.54-1.34-3.92-3.28-.43-2.2.98-4.34 3.15-4.78L14.2.08c2.2-.44 4.3 1 4.72 3.2.43 2.2-.98 4.34-3.15 4.78l-38.98 7.86c-.3.05-.6.08-.8.08" fill="#000" mask="url(#d)"/></g><path d="M71.02 148c-.47 0-.95-.08-1.4-.25-2.1-.78-3.14-3.08-2.36-5.14l13.96-37c.78-2 3.1-3.1 5.17-2.3 2 .8 3.1 3.1 2.3 5.2l-14 37c-.6 1.6-2.2 2.6-3.8 2.6m68 84c-1.3 0-2.6-.6-3.3-1.7-2.8-4.1-5.8-8.1-9-12-2.4-2.9-7.9-3.8-11.1-1.7-1.5.9-2.9 1.8-4.3 2.7-6.3 4.1-15.1 3.8-21-.7-4.1-3.1-8.3-6.1-12.6-8.9-1.9-1.2-2.5-3.7-1.3-5.6 1.1-1.9 3.6-2.5 5.5-1.3 4.5 2.9 9 6.1 13.2 9.4 3.1 2.5 8.3 2.7 11.7.4 1.4-.9 2.9-1.9 4.4-2.8 6.7-4.2 16.5-2.6 21.4 3.5 3.3 4.1 6.4 8.3 9.3 12.6 1.2 1.9.8 4.4-1 5.7-.7.5-1.5.7-2.3.7m120-120.1h-1c-4.9-.3-9.9-.4-14.8-.3-2.2.1-4.1-1.7-4.1-3.9-.1-2.2 1.7-4.1 3.9-4.1 5.1-.1 10.4 0 15.5.4 3.7.3 7.8-2.4 9.1-6 .5-1.5 1.1-3.1 1.7-4.7 2.5-7.1 11.4-11.7 19.4-9.9 5.5 1.2 11.1 2.7 16.5 4.5 2.1.7 3.2 3 2.6 5.1-.7 2.1-3 3.3-5.1 2.6-5.2-1.6-10.5-3.1-15.9-4.2-4.1-.9-9 1.4-10.2 4.8l-1.7 4.6c-2.4 6.68-9.3 11.4-16.2 11.4M310 339c-1.28 0-2.54-.6-3.33-1.72-1.24-1.8-.8-4.3 1.06-5.53 4.34-2.96 8.97-5.65 13.76-8 3.6-1.83 5.9-6.08 4.9-9.28l-1.5-4.57c-1.2-3.34-.9-7.06.9-10.44 2-3.92 5.9-6.92 10.5-8.22 6.4-1.82 13.1-3.23 19.8-4.2 2.2-.32 4.3 1.2 4.6 3.37.3 2.2-1.2 4.2-3.4 4.6-6.4.9-12.7 2.3-18.9 4-2.5.7-4.6 2.3-5.6 4.3-.8 1.5-.9 2.9-.5 4.2l1.6 4.8c2.1 7-1.9 15.1-9.1 18.7-4.5 2.2-8.8 4.7-12.8 7.5-.7.5-1.5.7-2.3.7" fill="#000"/><g transform="translate(0 47)"><mask id="f" fill="#fff"><use xlink:href="#e"/></mask><path d="M-11.78 17c-2.04 0-4.07-.38-5.97-1.17-3.6-1.53-6.83-2.65-8.45-3.2-2.15-.7-2.67-2.44-2.8-3.15l3.92-.7 1.3-3.83c1.8.6 5.27 1.8 9.1 3.43 3.07 1.28 7.24.26 9.46-2.33C-.7.52 8.62-.7 14.66 3.53c2.56 1.77 5.32 3.83 7.73 5.78l.1.1c1.7 1.4 2 4 .6 5.7s-3.9 2.1-5.7.6l-.1-.1c-2.3-1.8-4.9-3.7-7.3-5.4C7.4 8.3 2.8 8.9.8 11.3-2.33 14.98-7.1 17-11.8 17" fill="#000" mask="url(#f)"/></g><path d="M259.98 321c-.6 0-1.22-.13-1.8-.4l-16.96-8.22c-1.98-.96-2.8-3.3-1.8-5.22 1-1.93 3.4-2.7 5.4-1.75l16.96 8.3c1.98 1 2.8 3.3 1.8 5.2-.7 1.4-2.13 2.2-3.6 2.2" fill="#000"/><g transform="translate(273 -1)"><mask id="h" fill="#fff"><use xlink:href="#g"/></mask><path d="M10.93 6C9.2 6 7.6 4.92 7.05 3.22l-5.85-18c-.7-2.1.5-4.35 2.63-5.03 2.14-.7 4.43.4 5.12 2.5L14.8.7c.7 2.1-.5 4.36-2.6 5.04-.4.13-.8.2-1.2.2" fill="#000" mask="url(#h)"/></g><path d="M26.98 322c-1.2 0-2.4-.55-3.2-1.58-1.3-1.75-.94-4.22.82-5.52l15.04-11.12c1.76-1.3 4.26-.94 5.57.8 1.4 1.75 1 4.22-.8 5.52l-15 11.12c-.7.52-1.5.78-2.3.78m254.1-90c-1.3 0-2.5-.6-3.3-1.7-1.3-1.83-.8-4.32 1-5.58l5.9-4c1.9-1.27 4.4-.82 5.7 1 1.3 1.8.9 4.3-1 5.56l-5.8 4c-.7.5-1.5.72-2.3.72M313 384c-.37 0-.75-.05-1.13-.16l-6.83-1.97c-2.16-.62-3.4-2.85-2.8-4.98.64-2.2 2.9-3.4 5.07-2.8l6.9 1.9c2.2.6 3.4 2.8 2.8 5-.5 1.7-2.1 2.9-3.9 2.9m74.1 8c-.2 0-.5-.1-.8-.1l-6.9-1.3c-2.2-.4-3.6-2.5-3.2-4.6.4-2.1 2.5-3.5 4.7-3.1l6.9 1.2c2.2.4 3.7 2.4 3.2 4.5-.3 1.8-2 3.1-3.9 3.1M80.8 347c-2.16 0-4-1.58-4.18-3.68l-.6-6.98c-.2-2.2 1.52-4.14 3.83-4.32 2.3-.2 4.34 1.45 4.53 3.66l.6 6.98c.2 2.2-1.52 4.14-3.83 4.33h-.35m-66.94-91c-.5 0-1-.1-1.5-.3L5.64 253c-2.13-.84-3.2-3.26-2.36-5.4.83-2.16 3.23-3.22 5.35-2.38l6.73 2.62c2.13.83 3.18 3.25 2.36 5.4-.64 1.65-2.2 2.66-3.86 2.66m153.24-43c-.76 0-1.5-.2-2.2-.62-1.9-1.2-2.47-3.66-1.27-5.55l3.82-5.95c1.2-1.87 3.73-2.43 5.64-1.25 1.9 1.2 2.4 3.66 1.2 5.55l-3.8 5.94c-.8 1.2-2.1 1.87-3.5 1.87m1.8-136c-1.2 0-2.3-.4-3.1-1.3l-4.8-5.1c-1.5-1.6-1.4-4.1.3-5.6 1.6-1.5 4.2-1.4 5.8.2l4.8 5.1c1.5 1.6 1.4 4.1-.3 5.6-.8.6-1.8 1-2.8 1m60.1 161c-1.9 0-3.6-1.3-4-3.2-.4-2.1 1-4.1 3.2-4.5l6.9-1.3c2.2-.4 4.3.9 4.7 3 .4 2.1-1 4.1-3.2 4.5l-6.9 1.2c-.3.1-.5.1-.8.1m-28.2-109c-1.8-.6-3-2.4-2.8-4.4.2-2.2 2.2-3.8 4.4-3.6l7 .8c2.2.3 3.8 2.3 3.5 4.5-.3 2.3-2.3 3.8-4.5 3.6l-7-.9c-.3-.1-.5-.1-.8-.2m83 12.9c-1.4 1.3-3.5 1.5-5.1.4-1.8-1.3-2.3-3.9-1-5.7l4-5.9c1.3-1.8 3.8-2.3 5.6-1 1.8 1.3 2.2 3.8.9 5.7l-4 5.8c-.1.2-.3.4-.5.6m1.1-93.98c-1.9.4-3.8-.7-4.6-2.6-.8-2.13.3-4.6 2.4-5.4l6.7-2.6c2.1-.83 4.5.2 5.3 2.4.8 2.15-.2 4.6-2.4 5.4l-6.7 2.6c-.2.1-.5.2-.7.2M37.1 179.6c-1.84-.4-3.18-2-3.1-3.9.07-2.13 1.93-3.8 4.14-3.72l7 .3c2.2.1 3.93 1.9 3.85 4-.1 2.2-2 3.8-4.2 3.8l-7-.2c-.3 0-.5-.04-.8-.1M288 303.9c-1.78.5-3.7-.36-4.56-2.1-.94-2-.15-4.4 1.8-5.4l6.15-3.1c1.9-1 4.3-.17 5.2 1.8.9 1.95.1 4.33-1.8 5.3l-6.2 3.1c-.3.1-.5.2-.7.23M73.8 297c-1.1 0-2.3-.45-3.1-1.34L66 290.5c-1.5-1.63-1.33-4.1.4-5.53 1.7-1.43 4.32-1.26 5.82.37l4.74 5.16c1.5 1.63 1.33 4.1-.4 5.53-.77.65-1.74.97-2.7.97m27.1-236c-.33 0-.64-.04-.96-.1l-6.9-1.7c-2.17-.54-3.5-2.78-3-5 .53-2.24 2.7-3.62 4.9-3.1l6.9 1.7c2.17.54 3.5 2.78 3 5-.46 1.92-2.12 3.2-3.95 3.2M322.1 97c-1.75 0-3.36-1.1-3.9-2.78-.7-2.1.5-4.3 2.67-4.97l6.82-2.07c2.1-.65 4.4.5 5.1 2.6.7 2.1-.5 4.3-2.7 4.97l-6.8 2.07c-.4.12-.8.18-1.2.18m-163 161c-1.3 0-2.6-.6-3.4-1.74-1.3-1.84-.9-4.37 1-5.64l15.8-10.9c1.8-1.27 4.4-.8 5.6 1.02 1.3 1.84.8 4.37-1.1 5.64l-15.9 10.9c-.7.5-1.5.72-2.3.72m211.9 75h-.3l-18.9-1.16c-2.2-.13-3.9-2-3.8-4.16.1-2.16 2-3.8 4.2-3.67l18.9 1.2c2.2.2 3.9 2 3.7 4.2-.2 2.1-1.9 3.7-4.1 3.7m-33.9 37c-.5 0-1.1-.1-1.6-.3l-17.1-7.1c-2-.8-3-3.1-2.1-5.1.8-2 3.1-2.9 5.1-2.1l17.1 7.2c2 .9 2.9 3.2 2.1 5.2-.67 1.5-2.1 2.4-3.67 2.4M230.3 211.8c-.47.17-1 .25-1.55.23l-18.98-.9c-2.28-.1-4-2-3.9-4.24.1-2.3 2-4 4.2-3.9l18.97.9c2.22.1 3.93 2 3.83 4.2-.1 1.7-1.17 3-2.65 3.6m-135 158c-.48.1-1 .2-1.56.2l-19-.9c-2.2-.1-3.92-2-3.82-4.3.1-2.3 2-4 4.2-3.9l18.97.9c2.2.1 4 2 3.9 4.2-.1 1.6-1.2 3-2.7 3.6M361.9 99c-1.8 0-3.43-1.28-3.83-3.15-.5-2.16.8-4.3 3-4.76l18.1-4c2.1-.5 4.2.9 4.7 3 .4 2.1-.9 4.3-3 4.7l-18.2 4c-.27 0-.55.1-.83.1m6.02-69c-.44 0-.87-.1-1.3-.2-2.06-.8-3.16-3-2.44-5.2l6.1-18c.7-2.1 2.96-3.2 5.02-2.5 2.05.7 3.15 3 2.43 5.1l-6.1 17.9c-.55 1.6-2.1 2.7-3.72 2.7m-190.7 79.4c-.27-.8-.33-1.6-.13-2.3l4.78-18.1c.56-2.1 2.8-3.4 5-2.9 2.22.5 3.56 2.7 3 4.8l-4.74 18.1c-.55 2.1-2.8 3.4-5 2.8-1.4-.4-2.43-1.3-2.88-2.5m41.42-42.4c-.75-.1-1.5-.4-2.1-.9l-14.1-12c-1.66-1.4-1.87-4-.48-5.6 1.4-1.7 3.86-1.9 5.52-.5L221.6 60c1.66 1.4 1.87 3.92.48 5.6-.87 1.05-2.16 1.53-3.4 1.4" fill="#000"/><g transform="translate(97 -1)"><mask id="j" fill="#fff"><use xlink:href="#i"/></mask><path d="M9 13c-1.78 0-3.4-1.16-3.88-2.92L.14-8c-.58-2.1.68-4.28 2.82-4.86 2.14-.58 4.34.67 4.92 2.78L12.86 8c.58 2.1-.68 4.28-2.82 4.86-.35.1-.7.14-1.05.14" fill="#000" mask="url(#j)"/></g><path d="M117.06 275c-1.1 0-2.2-.47-3-1.38l-12.1-14.1c-1.43-1.66-1.24-4.15.42-5.57 1.65-1.42 4.14-1.23 5.55.42l12.12 14.12c1.42 1.6 1.23 4.1-.42 5.5-.75.6-1.66.9-2.57.9M359.12 251c.28-1.07 1.02-2 2.1-2.54l16.98-8.2c2-.96 4.4-.17 5.38 1.76 1 1.93.17 4.27-1.8 5.23l-16.98 8.2c-2 .95-4.4.16-5.38-1.77-.44-.88-.52-1.84-.3-2.7" fill="#000"/><g transform="translate(0 348)"><mask id="l" fill="#fff"><use xlink:href="#k"/></mask><path d="M10.04 14c-.34 0-.68-.04-1-.13l-18.1-4.9c-2.1-.56-3.37-2.78-2.8-4.95.55-2.16 2.72-3.45 4.83-2.9l18.08 4.9c2.1.57 3.38 2.8 2.82 4.96C13.4 12.8 11.8 14 10.04 14" fill="#000" mask="url(#l)"/></g><path d="M270.06 184c-.34 0-.7-.04-1.04-.13-2.16-.56-3.46-2.73-2.88-4.84l4.88-18.08c.57-2.1 2.8-3.38 4.96-2.82s3.46 2.73 2.88 4.84l-4.88 18.08c-.48 1.77-2.12 2.95-3.92 2.95m-162.13-26.33c-.37-.4-.66-.9-.84-1.44l-5.9-18c-.7-2.1.4-4.35 2.6-5.03 2.1-.7 4.4.47 5.1 2.57l5.9 18c.7 2.1-.5 4.35-2.6 5.03-1.6.5-3.3 0-4.3-1.13M43 88c-1.64 0-3.18-1-3.8-2.64-.8-2.1.27-4.47 2.36-5.27l17.9-6.9c2.1-.8 4.42.2 5.22 2.4.8 2.1-.27 4.4-2.36 5.2L44.5 87.7c-.47.18-.96.27-1.43.27m18.96-51c-1.05 0-2.1-.43-2.88-1.26L46.1 21.9c-1.5-1.62-1.46-4.2.12-5.76 1.6-1.56 4.1-1.5 5.64.1L64.9 30.1c1.5 1.62 1.46 4.2-.12 5.76C64 36.62 63 37 62.02 37" fill="#000"/><g transform="translate(0 183)"><mask id="n" fill="#fff"><use xlink:href="#m"/></mask><path d="M-50.97 49c-1.24 0-2.46-.14-3.63-.43-3.1-.77-6.2-1.54-9.24-2.34-2.83-.7-7.43.2-9.8 1.93-1.78 1.3-4.28.92-5.58-.84-1.3-1.77-.93-4.25.84-5.55 4.28-3.13 11.38-4.52 16.53-3.23 3.05.8 6.1 1.56 9.2 2.33 2.83.7 6.96-.66 8.53-2.82 1.87-2.5 3.7-5.13 5.44-7.8 3.48-5.2 10.23-8.5 15.7-7.74 3.27.5 6.3 1 9.26 1.5 2.3.5 5.75-1.2 6.95-4.1 1.35-3.2 2.67-6.5 3.92-9.9C-.3 3.3 6.25-1 12.1.2 17.95 1.42 23.74 3 29.32 4.93c2.08.72 3.18 2.98 2.46 5.05-.72 2.07-3 3.17-5.07 2.45-5.2-1.8-10.7-3.3-16.2-4.46-1.7-.35-4.7 1.67-5.9 4.83-1.2 3.4-2.6 6.82-4 10.12-2.5 6.1-9.4 10.03-15.7 8.9-2.9-.52-5.8-1-9-1.46-2.4-.36-6.1 1.68-7.9 4.25-1.8 2.8-3.7 5.5-5.6 8.2-2.8 3.9-8.1 6.3-13.3 6.3" fill="#000" mask="url(#n)"/></g><g transform="translate(371 132)"><mask id="p" fill="#fff"><use xlink:href="#o"/></mask><path d="M5 16c-1.87 0-3.54-1.34-3.92-3.28-.43-2.2.98-4.34 3.15-4.78L43.2.08c2.2-.44 4.3 1 4.72 3.2.43 2.2-.98 4.34-3.15 4.78L5.8 15.92c-.27.05-.53.08-.8.08" fill="#000" mask="url(#p)"/></g><g transform="translate(370 47)"><mask id="r" fill="#fff"><use xlink:href="#q"/></mask><path d="M18.24 17c-2.03 0-4.06-.38-5.95-1.17-3.6-1.52-6.9-2.65-8.5-3.2-2.2-.7-2.7-2.44-2.8-3.15 0 0-.2-.88.1-2.08.9-3.5 5.1-2.45 5.1-2.45 1.8.6 5.3 1.8 9.1 3.43 3 1.3 7.2.26 9.4-2.33C29.3.52 38.6-.7 44.6 3.53c2.6 1.76 5.3 3.8 7.7 5.77l.1.04c.14.1.27.23.4.36 1.56 1.57 1.56 4.13 0 5.7-1.2 1.23-3.43 1.82-5.43.2-2.3-1.83-4.9-3.75-7.3-5.42-2.7-1.9-7.3-1.35-9.3 1.08-3.1 3.7-7.9 5.74-12.6 5.74" fill="#000" mask="url(#r)"/></g><g transform="translate(388 348)"><mask id="t" fill="#fff"><use xlink:href="#s"/></mask><path d="M22.04 14c-.34 0-.68-.04-1-.13l-18.1-4.9C.84 8.42-.42 6.2.14 4.03.7 1.86 2.84.57 4.97 1.13l18.08 4.9c2.1.56 3.38 2.8 2.82 4.95C25.4 12.8 23.8 14 22.04 14" fill="#000" mask="url(#t)"/></g><g transform="translate(320 183)"><mask id="v" fill="#fff"><use xlink:href="#u"/></mask><path d="M29.03 49c-1.24 0-2.46-.14-3.63-.44-3.1-.76-6.2-1.54-9.24-2.33-2.83-.7-7.43.2-9.8 1.93-1.78 1.3-4.28.92-5.58-.84-1.3-1.77-.93-4.25.84-5.55 4.28-3.13 11.4-4.52 16.53-3.23 3.05.8 6.1 1.56 9.2 2.33 2.83.7 6.96-.66 8.53-2.82 1.86-2.5 3.7-5.12 5.45-7.8 3.47-5.2 10.22-8.52 15.7-7.74 3.25.5 6.27 1 9.25 1.5 2.3.5 5.75-1.2 6.95-4.1 1.36-3.2 2.68-6.5 3.9-9.8C79.7 3.3 86.26-1 92.1.2c5.85 1.22 11.64 2.82 17.22 4.73 2.08.72 3.18 2.98 2.46 5.05-.72 2.07-3 3.17-5.07 2.45-5.2-1.8-10.7-3.3-16.2-4.46-1.7-.36-4.6 1.62-5.8 4.82-1.2 3.4-2.6 6.8-4 10.1-2.5 6.1-9.4 10-15.7 8.9-2.9-.5-5.8-1-9-1.5-2.4-.4-6.1 1.7-7.9 4.2-1.8 2.8-3.7 5.5-5.6 8.1-2.8 3.8-8.1 6.2-13.3 6.2" fill="#000" mask="url(#v)"/></g><path d="M222 332c-1.22 0-2.43-.56-3.2-1.6-4.53-6.06-9.13-12.03-13.67-17.74-1.93-2.44-5.1-3.18-7.23-1.7-2.9 2-5.77 3.92-8.54 5.7-5.53 3.55-13.44 2.63-17.65-2.05l-5.9-6.5c-1.2-1.3-4.2-1.1-6.6.4-3 2-6 3.8-8.9 5.5-5.6 3.2-13 2.6-16.6-1.3l-4.6-5.1c-.4-.4-3.1-.9-6.4.5-2 .9-4.4-.1-5.2-2.1-.8-2 .1-4.3 2.2-5.2 5.1-2.1 11.8-2.4 15.4 1.6l4.7 5.2c.7.7 3.8 1.4 6.7-.2 2.8-1.6 5.7-3.3 8.5-5.2 5.8-3.8 13.1-3.4 17 .9 2 2.1 4 4.3 6 6.6 1.4 1.6 5 2.2 7.4.7 2.7-1.7 5.5-3.6 8.3-5.5 5.6-3.9 13.6-2.4 18.1 3.3 4.6 5.8 9.3 11.8 13.8 17.9 1.3 1.8 1 4.3-.8 5.6-.7.6-1.5.8-2.4.8" fill="#000"/><g transform="translate(123 -1)"><mask id="x" fill="#fff"><use xlink:href="#w"/></mask><path d="M6.4 92c-1.94 0-3.63-1.4-3.95-3.35l-1.32-8.1C.23 75 4.33 68.08 8.8 63.68c2.96-2.85 5.92-5.9 8.95-9 3.47-3.53 5.52-9.35 5.04-12.22l-1.6-9.4c-1-5.86 2.6-14.73 6.6-19.9 3.2-4.1 6-7.44 8.6-10.26 3.1-3.3 5-9.15 4.4-13.3-.4-2.2 1.1-4.22 3.3-4.55 2.2-.33 4.2 1.16 4.5 3.34 1 6.5-1.7 14.9-6.5 19.9-2.5 2.6-5.2 5.8-8.2 9.7-3.4 4.3-5.5 10.9-5 13.7l1.5 9.4c.9 5.7-2.2 13.9-7.2 19-3.1 3.1-6.1 6.2-9.1 9.1-3.9 3.8-5.6 8.2-5.4 9.9l1.3 8.1c.3 2.1-1.1 4.2-3.3 4.6H6" fill="#000" mask="url(#x)"/></g><g transform="translate(183 378)"><mask id="z" fill="#fff"><use xlink:href="#y"/></mask><path d="M4.04 43c-.72 0-1.45-.2-2.1-.6-1.9-1.14-2.5-3.6-1.34-5.5l20.9-34C22.67 1 25.16.4 27.06 1.57c1.9 1.15 2.5 3.62 1.35 5.5L7.5 41.1C6.72 42.32 5.4 43 4.03 43" fill="#000" mask="url(#z)"/></g><g transform="translate(273 379)"><mask id="B" fill="#fff"><use xlink:href="#A"/></mask><path d="M10.93 26c-1.72 0-3.33-1.08-3.88-2.78l-5.85-18C.5 3.12 1.7.88 3.83.2c2.14-.7 4.43.47 5.12 2.57l5.86 18c.7 2.1-.5 4.35-2.6 5.03-.4.14-.8.2-1.2.2" fill="#000" mask="url(#B)"/></g><g transform="translate(97 386)"><mask id="D" fill="#fff"><use xlink:href="#C"/></mask><path d="M9 26c-1.78 0-3.4-1.16-3.88-2.92L.14 5C-.44 2.9.82.73 2.96.15 5.1-.45 7.3.8 7.88 2.92L12.86 21c.58 2.1-.68 4.28-2.82 4.86-.35.1-.7.14-1.05.14" fill="#000" mask="url(#D)"/></g><g transform="translate(123 383)"><mask id="F" fill="#fff"><use xlink:href="#E"/></mask><path d="M6.4 108c-1.94 0-3.63-1.4-3.95-3.35l-1.32-8.1C.23 91 4.33 84.08 8.8 79.68c2.96-2.85 5.92-5.9 8.95-9 3.47-3.53 5.52-9.35 5.04-12.22l-1.6-9.4c-1-5.86 2.6-14.73 6.6-19.9 3.2-4.08 6-7.42 8.6-10.24 3.1-3.3 5-9.15 4.4-13.3-.3-2.2 1.2-4.22 3.4-4.55C46.4.7 48.4 2.2 48.8 4.4c1 6.5-1.72 14.9-6.45 19.94-2.43 2.64-5.12 5.83-8.2 9.7-3.36 4.36-5.46 10.97-5 13.72l1.55 9.4c.94 5.73-2.16 13.93-7.2 19.07-3.07 3.16-6.1 6.25-9.1 9.16-3.87 3.7-5.63 8.2-5.37 9.8l1.32 8.1c.36 2.2-1.12 4.2-3.3 4.6H6.4" fill="#000" mask="url(#F)"/></g><path d="M57 378.5c0 3.04-2.46 5.5-5.5 5.5s-5.5-2.46-5.5-5.5 2.46-5.5 5.5-5.5 5.5 2.46 5.5 5.5m132-21c0 3.04-2.46 5.5-5.5 5.5s-5.5-2.46-5.5-5.5 2.46-5.5 5.5-5.5 5.5 2.46 5.5 5.5m193-78c0 3.04-2.46 5.5-5.5 5.5s-5.5-2.46-5.5-5.5 2.46-5.5 5.5-5.5 5.5 2.46 5.5 5.5m-56-24c0 3.04-2.46 5.5-5.5 5.5s-5.5-2.46-5.5-5.5 2.46-5.5 5.5-5.5 5.5 2.46 5.5 5.5m19-125c0 3.04-2.46 5.5-5.5 5.5s-5.5-2.46-5.5-5.5 2.46-5.5 5.5-5.5 5.5 2.46 5.5 5.5m-99 31c0 3.04-2.46 5.5-5.5 5.5s-5.5-2.46-5.5-5.5 2.46-5.5 5.5-5.5 5.5 2.46 5.5 5.5m-101 22c0 3.04-2.46 5.5-5.5 5.5s-5.5-2.46-5.5-5.5 2.46-5.5 5.5-5.5 5.5 2.46 5.5 5.5m71 85c0 3.04-2.46 5.5-5.5 5.5s-5.5-2.46-5.5-5.5 2.46-5.5 5.5-5.5 5.5 2.46 5.5 5.5m-57-147c0 3.04-2.46 5.5-5.5 5.5s-5.5-2.46-5.5-5.5 2.46-5.5 5.5-5.5 5.5 2.46 5.5 5.5m98-81c0 3.04-2.46 5.5-5.5 5.5s-5.5-2.46-5.5-5.5 2.46-5.5 5.5-5.5 5.5 2.46 5.5 5.5m-234-20c0 3.04-2.46 5.5-5.5 5.5S12 23.54 12 20.5s2.46-5.5 5.5-5.5 5.5 2.46 5.5 5.5" fill="#000"/></g></svg>
