<svg width="400" height="400" viewBox="0 0 400 400" xmlns="http://www.w3.org/2000/svg" xmlns:xlink="http://www.w3.org/1999/xlink"><defs><path id="a" d="M0 7V1h6v6H0z"/><path id="c" d="M0 1h12v6H0V1z"/><path id="e" d="M0 1h12v6H0V1z"/><path id="g" d="M0 1h12v6H0V1z"/><path id="i" d="M0 1h12v6H0V1z"/><path id="k" d="M0 1h12v6H0V1z"/><path id="m" d="M0 1h12v6H0V1z"/><path id="o" d="M0 1h12v6H0V1z"/><path id="q" d="M0 1h12v6H0V1z"/><path id="s" d="M0 1h12v6H0z"/><path id="u" d="M0 1h12v6H0V1z"/><path id="w" d="M0 1h12v6H0V1z"/><path id="y" d="M0 1h12v6H0V1z"/><path id="A" d="M0 1h12v6H0V1z"/><path id="C" d="M0 1h12v6H0V1z"/><path id="E" d="M0 1h12v6H0V1z"/><path id="G" d="M0 1h6v6H0V1z"/><path id="I" d="M0 13V1h6v12H0z"/><path id="K" d="M0 13V1h6v12z"/><path id="M" d="M0 13V1h6v12H0z"/><path id="O" d="M0 13V1h6v12H0z"/><path id="Q" d="M0 13V1h6v12z"/><path id="S" d="M0 13V1h6v12H0z"/><path id="U" d="M0 13V1h6v12H0z"/><path id="W" d="M0 13V1h6v12H0z"/><path id="Y" d="M0 13V1h6v12H0z"/><path id="aa" d="M0 13V1h6v12H0z"/><path id="ac" d="M0 13V1h6v12H0z"/><path id="ae" d="M0 13V1h6v12z"/><path id="ag" d="M0 13V1h6v12z"/><path id="ai" d="M0 13V1h6v12z"/><path id="ak" d="M0 13V1h6v12H0z"/><path id="am" d="M0 1v6h6V1H0z"/><path id="ao" d="M12 7H0V1h12v6z"/><path id="aq" d="M12 7H0V1h12z"/><path id="as" d="M12 7H0V1h12v6z"/><path id="au" d="M12 7H0V1h12z"/><path id="aw" d="M12 7H0V1h12v6z"/><path id="ay" d="M12 7H0V1h12z"/><path id="aA" d="M12 7H0V1h12v6z"/><path id="aC" d="M12 7H0V1h12v6z"/><path id="aE" d="M12 7H0V1h12v6z"/><path id="aG" d="M12 7H0V1h12z"/><path id="aI" d="M12 7H0V1h12v6z"/><path id="aK" d="M12 7H0V1h12v6z"/><path id="aM" d="M12 7H0V1h12v6z"/><path id="aO" d="M12 7H0V1h12v6z"/><path id="aQ" d="M12 7H0V1h12v6z"/><path id="aS" d="M6 1v12H0V1h6z"/><path id="aU" d="M6 1v12H0V1h6z"/><path id="aW" d="M6 1v12H0V1h6z"/><path id="aY" d="M6 1v12H0V1h6z"/><path id="ba" d="M6 1v12H0V1h6z"/><path id="bc" d="M6 1v12H0V1h6z"/><path id="be" d="M6 1v12H0V1h6z"/><path id="bg" d="M6 1v12H0V1h6z"/><path id="bi" d="M6 1v12H0V1h6z"/><path id="bk" d="M6 1v12H0V1h6z"/><path id="bm" d="M6 1v12H0V1h6z"/><path id="bo" d="M6 1v12H0V1h6z"/><path id="bq" d="M6 1v12H0V1h6z"/><path id="bs" d="M6 1v12H0V1h6z"/><path id="bu" d="M6 1v12H0V1h6z"/><path id="bw" d="M6 1v6H0V1h6z"/></defs><g fill="none" fill-rule="evenodd"><g transform="translate(0 -1)"><mask id="b" fill="#fff"><use xlink:href="#a"/></mask><path d="M6 1c0 3.3-2.7 6-6 6s-6-2.7-6-6 2.7-6 6-6 6 2.7 6 6" fill="#000" mask="url(#b)"/></g><g transform="translate(19 -1)"><mask id="d" fill="#fff"><use xlink:href="#c"/></mask><path d="M12 1c0 3.3-2.7 6-6 6S0 4.3 0 1s2.7-6 6-6 6 2.7 6 6" fill="#000" mask="url(#d)"/></g><g transform="translate(44 -1)"><mask id="f" fill="#fff"><use xlink:href="#e"/></mask><path d="M12 1c0 3.3-2.7 6-6 6S0 4.3 0 1s2.7-6 6-6 6 2.7 6 6" fill="#000" mask="url(#f)"/></g><g transform="translate(69 -1)"><mask id="h" fill="#fff"><use xlink:href="#g"/></mask><path d="M12 1c0 3.3-2.7 6-6 6S0 4.3 0 1s2.7-6 6-6 6 2.7 6 6" fill="#000" mask="url(#h)"/></g><g transform="translate(94 -1)"><mask id="j" fill="#fff"><use xlink:href="#i"/></mask><path d="M12 1c0 3.3-2.7 6-6 6S0 4.3 0 1s2.7-6 6-6 6 2.7 6 6" fill="#000" mask="url(#j)"/></g><g transform="translate(119 -1)"><mask id="l" fill="#fff"><use xlink:href="#k"/></mask><path d="M12 1c0 3.3-2.7 6-6 6S0 4.3 0 1s2.7-6 6-6 6 2.7 6 6" fill="#000" mask="url(#l)"/></g><g transform="translate(144 -1)"><mask id="n" fill="#fff"><use xlink:href="#m"/></mask><path d="M12 1c0 3.3-2.7 6-6 6S0 4.3 0 1s2.7-6 6-6 6 2.7 6 6" fill="#000" mask="url(#n)"/></g><g transform="translate(169 -1)"><mask id="p" fill="#fff"><use xlink:href="#o"/></mask><path d="M12 1c0 3.3-2.7 6-6 6S0 4.3 0 1s2.7-6 6-6 6 2.7 6 6" fill="#000" mask="url(#p)"/></g><g transform="translate(194 -1)"><mask id="r" fill="#fff"><use xlink:href="#q"/></mask><path d="M12 1c0 3.3-2.7 6-6 6S0 4.3 0 1s2.7-6 6-6 6 2.7 6 6" fill="#000" mask="url(#r)"/></g><g transform="translate(219 -1)"><mask id="t" fill="#fff"><use xlink:href="#s"/></mask><path d="M12 1c0 3.3-2.7 6-6 6S0 4.3 0 1s2.7-6 6-6 6 2.7 6 6" fill="#000" mask="url(#t)"/></g><g transform="translate(244 -1)"><mask id="v" fill="#fff"><use xlink:href="#u"/></mask><path d="M12 1c0 3.3-2.7 6-6 6S0 4.3 0 1s2.7-6 6-6 6 2.7 6 6" fill="#000" mask="url(#v)"/></g><g transform="translate(269 -1)"><mask id="x" fill="#fff"><use xlink:href="#w"/></mask><path d="M12 1c0 3.3-2.7 6-6 6S0 4.3 0 1s2.7-6 6-6 6 2.7 6 6" fill="#000" mask="url(#x)"/></g><g transform="translate(294 -1)"><mask id="z" fill="#fff"><use xlink:href="#y"/></mask><path d="M12 1c0 3.3-2.7 6-6 6S0 4.3 0 1s2.7-6 6-6 6 2.7 6 6" fill="#000" mask="url(#z)"/></g><g transform="translate(319 -1)"><mask id="B" fill="#fff"><use xlink:href="#A"/></mask><path d="M12 1c0 3.3-2.7 6-6 6S0 4.3 0 1s2.7-6 6-6 6 2.7 6 6" fill="#000" mask="url(#B)"/></g><g transform="translate(344 -1)"><mask id="D" fill="#fff"><use xlink:href="#C"/></mask><path d="M12 1c0 3.3-2.7 6-6 6S0 4.3 0 1s2.7-6 6-6 6 2.7 6 6" fill="#000" mask="url(#D)"/></g><g transform="translate(369 -1)"><mask id="F" fill="#fff"><use xlink:href="#E"/></mask><path d="M12 1c0 3.3-2.7 6-6 6S0 4.3 0 1s2.7-6 6-6 6 2.7 6 6" fill="#000" mask="url(#F)"/></g><g transform="translate(394 -1)"><mask id="H" fill="#fff"><use xlink:href="#G"/></mask><path d="M12 1c0 3.3-2.7 6-6 6S0 4.3 0 1s2.7-6 6-6 6 2.7 6 6" fill="#000" mask="url(#H)"/></g><g transform="translate(0 18)"><mask id="J" fill="#fff"><use xlink:href="#I"/></mask><path d="M0 13c-3.3 0-6-2.7-6-6s2.7-6 6-6 6 2.7 6 6-2.7 6-6 6" fill="#000" mask="url(#J)"/></g><g transform="translate(0 43)"><mask id="L" fill="#fff"><use xlink:href="#K"/></mask><path d="M0 13c-3.3 0-6-2.7-6-6s2.7-6 6-6 6 2.7 6 6-2.7 6-6 6" fill="#000" mask="url(#L)"/></g><g transform="translate(0 68)"><mask id="N" fill="#fff"><use xlink:href="#M"/></mask><path d="M0 13c-3.3 0-6-2.7-6-6s2.7-6 6-6 6 2.7 6 6-2.7 6-6 6" fill="#000" mask="url(#N)"/></g><g transform="translate(0 93)"><mask id="P" fill="#fff"><use xlink:href="#O"/></mask><path d="M0 13c-3.3 0-6-2.7-6-6s2.7-6 6-6 6 2.7 6 6-2.7 6-6 6" fill="#000" mask="url(#P)"/></g><g transform="translate(0 118)"><mask id="R" fill="#fff"><use xlink:href="#Q"/></mask><path d="M0 13c-3.3 0-6-2.7-6-6s2.7-6 6-6 6 2.7 6 6-2.7 6-6 6" fill="#000" mask="url(#R)"/></g><g transform="translate(0 143)"><mask id="T" fill="#fff"><use xlink:href="#S"/></mask><path d="M0 13c-3.3 0-6-2.7-6-6s2.7-6 6-6 6 2.7 6 6-2.7 6-6 6" fill="#000" mask="url(#T)"/></g><g transform="translate(0 168)"><mask id="V" fill="#fff"><use xlink:href="#U"/></mask><path d="M0 13c-3.3 0-6-2.7-6-6s2.7-6 6-6 6 2.7 6 6-2.7 6-6 6" fill="#000" mask="url(#V)"/></g><g transform="translate(0 193)"><mask id="X" fill="#fff"><use xlink:href="#W"/></mask><path d="M0 13c-3.3 0-6-2.7-6-6s2.7-6 6-6 6 2.7 6 6-2.7 6-6 6" fill="#000" mask="url(#X)"/></g><g transform="translate(0 218)"><mask id="Z" fill="#fff"><use xlink:href="#Y"/></mask><path d="M0 13c-3.3 0-6-2.7-6-6s2.7-6 6-6 6 2.7 6 6-2.7 6-6 6" fill="#000" mask="url(#Z)"/></g><g transform="translate(0 243)"><mask id="ab" fill="#fff"><use xlink:href="#aa"/></mask><path d="M0 13c-3.3 0-6-2.7-6-6s2.7-6 6-6 6 2.7 6 6-2.7 6-6 6" fill="#000" mask="url(#ab)"/></g><g transform="translate(0 268)"><mask id="ad" fill="#fff"><use xlink:href="#ac"/></mask><path d="M0 13c-3.3 0-6-2.7-6-6s2.7-6 6-6 6 2.7 6 6-2.7 6-6 6" fill="#000" mask="url(#ad)"/></g><g transform="translate(0 293)"><mask id="af" fill="#fff"><use xlink:href="#ae"/></mask><path d="M0 13c-3.3 0-6-2.7-6-6s2.7-6 6-6 6 2.7 6 6-2.7 6-6 6" fill="#000" mask="url(#af)"/></g><g transform="translate(0 318)"><mask id="ah" fill="#fff"><use xlink:href="#ag"/></mask><path d="M0 13c-3.3 0-6-2.7-6-6s2.7-6 6-6 6 2.7 6 6-2.7 6-6 6" fill="#000" mask="url(#ah)"/></g><g transform="translate(0 343)"><mask id="aj" fill="#fff"><use xlink:href="#ai"/></mask><path d="M0 13c-3.3 0-6-2.7-6-6s2.7-6 6-6 6 2.7 6 6-2.7 6-6 6" fill="#000" mask="url(#aj)"/></g><g transform="translate(0 368)"><mask id="al" fill="#fff"><use xlink:href="#ak"/></mask><path d="M0 13c-3.3 0-6-2.7-6-6s2.7-6 6-6 6 2.7 6 6-2.7 6-6 6" fill="#000" mask="url(#al)"/></g><g transform="translate(0 393)"><mask id="an" fill="#fff"><use xlink:href="#am"/></mask><path d="M0 13c-3.3 0-6-2.7-6-6s2.7-6 6-6 6 2.7 6 6-2.7 6-6 6" fill="#000" mask="url(#an)"/></g><path d="M25 31c-3.3 0-6-2.7-6-6s2.7-6 6-6 6 2.7 6 6-2.7 6-6 6m0 25c-3.3 0-6-2.7-6-6s2.7-6 6-6 6 2.7 6 6-2.7 6-6 6m0 25c-3.3 0-6-2.7-6-6s2.7-6 6-6 6 2.7 6 6-2.7 6-6 6m0 25c-3.3 0-6-2.7-6-6s2.7-6 6-6 6 2.7 6 6-2.7 6-6 6m0 25c-3.3 0-6-2.7-6-6s2.7-6 6-6 6 2.7 6 6-2.7 6-6 6m0 25c-3.3 0-6-2.7-6-6s2.7-6 6-6 6 2.7 6 6-2.7 6-6 6m0 25c-3.3 0-6-2.7-6-6s2.7-6 6-6 6 2.7 6 6-2.7 6-6 6m0 25c-3.3 0-6-2.7-6-6s2.7-6 6-6 6 2.7 6 6-2.7 6-6 6m0 25c-3.3 0-6-2.7-6-6s2.7-6 6-6 6 2.7 6 6-2.7 6-6 6m0 25c-3.3 0-6-2.7-6-6s2.7-6 6-6 6 2.7 6 6-2.7 6-6 6m0 25c-3.3 0-6-2.7-6-6s2.7-6 6-6 6 2.7 6 6-2.7 6-6 6m0 25c-3.3 0-6-2.7-6-6s2.7-6 6-6 6 2.7 6 6-2.7 6-6 6m0 25c-3.3 0-6-2.7-6-6s2.7-6 6-6 6 2.7 6 6-2.7 6-6 6m0 25c-3.3 0-6-2.7-6-6s2.7-6 6-6 6 2.7 6 6-2.7 6-6 6m0 25c-3.3 0-6-2.7-6-6s2.7-6 6-6 6 2.7 6 6-2.7 6-6 6" fill="#000"/><g transform="translate(19 393)"><mask id="ap" fill="#fff"><use xlink:href="#ao"/></mask><path d="M6 13c-3.3 0-6-2.7-6-6s2.7-6 6-6 6 2.7 6 6-2.7 6-6 6" fill="#000" mask="url(#ap)"/></g><path d="M50 31c-3.3 0-6-2.7-6-6s2.7-6 6-6 6 2.7 6 6-2.7 6-6 6m0 25c-3.3 0-6-2.7-6-6s2.7-6 6-6 6 2.7 6 6-2.7 6-6 6m0 25c-3.3 0-6-2.7-6-6s2.7-6 6-6 6 2.7 6 6-2.7 6-6 6m0 25c-3.3 0-6-2.7-6-6s2.7-6 6-6 6 2.7 6 6-2.7 6-6 6m0 25c-3.3 0-6-2.7-6-6s2.7-6 6-6 6 2.7 6 6-2.7 6-6 6m0 25c-3.3 0-6-2.7-6-6s2.7-6 6-6 6 2.7 6 6-2.7 6-6 6m0 25c-3.3 0-6-2.7-6-6s2.7-6 6-6 6 2.7 6 6-2.7 6-6 6m0 25c-3.3 0-6-2.7-6-6s2.7-6 6-6 6 2.7 6 6-2.7 6-6 6m0 25c-3.3 0-6-2.7-6-6s2.7-6 6-6 6 2.7 6 6-2.7 6-6 6m0 25c-3.3 0-6-2.7-6-6s2.7-6 6-6 6 2.7 6 6-2.7 6-6 6m0 25c-3.3 0-6-2.7-6-6s2.7-6 6-6 6 2.7 6 6-2.7 6-6 6m0 25c-3.3 0-6-2.7-6-6s2.7-6 6-6 6 2.7 6 6-2.7 6-6 6m0 25c-3.3 0-6-2.7-6-6s2.7-6 6-6 6 2.7 6 6-2.7 6-6 6m0 25c-3.3 0-6-2.7-6-6s2.7-6 6-6 6 2.7 6 6-2.7 6-6 6m0 25c-3.3 0-6-2.7-6-6s2.7-6 6-6 6 2.7 6 6-2.7 6-6 6" fill="#000"/><g transform="translate(44 393)"><mask id="ar" fill="#fff"><use xlink:href="#aq"/></mask><path d="M6 13c-3.3 0-6-2.7-6-6s2.7-6 6-6 6 2.7 6 6-2.7 6-6 6" fill="#000" mask="url(#ar)"/></g><path d="M75 31c-3.3 0-6-2.7-6-6s2.7-6 6-6 6 2.7 6 6-2.7 6-6 6m0 25c-3.3 0-6-2.7-6-6s2.7-6 6-6 6 2.7 6 6-2.7 6-6 6m0 25c-3.3 0-6-2.7-6-6s2.7-6 6-6 6 2.7 6 6-2.7 6-6 6m0 25c-3.3 0-6-2.7-6-6s2.7-6 6-6 6 2.7 6 6-2.7 6-6 6m0 25c-3.3 0-6-2.7-6-6s2.7-6 6-6 6 2.7 6 6-2.7 6-6 6m0 25c-3.3 0-6-2.7-6-6s2.7-6 6-6 6 2.7 6 6-2.7 6-6 6m0 25c-3.3 0-6-2.7-6-6s2.7-6 6-6 6 2.7 6 6-2.7 6-6 6m0 25c-3.3 0-6-2.7-6-6s2.7-6 6-6 6 2.7 6 6-2.7 6-6 6m0 25c-3.3 0-6-2.7-6-6s2.7-6 6-6 6 2.7 6 6-2.7 6-6 6m0 25c-3.3 0-6-2.7-6-6s2.7-6 6-6 6 2.7 6 6-2.7 6-6 6m0 25c-3.3 0-6-2.7-6-6s2.7-6 6-6 6 2.7 6 6-2.7 6-6 6m0 25c-3.3 0-6-2.7-6-6s2.7-6 6-6 6 2.7 6 6-2.7 6-6 6m0 25c-3.3 0-6-2.7-6-6s2.7-6 6-6 6 2.7 6 6-2.7 6-6 6m0 25c-3.3 0-6-2.7-6-6s2.7-6 6-6 6 2.7 6 6-2.7 6-6 6m0 25c-3.3 0-6-2.7-6-6s2.7-6 6-6 6 2.7 6 6-2.7 6-6 6" fill="#000"/><g transform="translate(69 393)"><mask id="at" fill="#fff"><use xlink:href="#as"/></mask><path d="M6 13c-3.3 0-6-2.7-6-6s2.7-6 6-6 6 2.7 6 6-2.7 6-6 6" fill="#000" mask="url(#at)"/></g><path d="M100 31c-3.3 0-6-2.7-6-6s2.7-6 6-6 6 2.7 6 6-2.7 6-6 6m0 25c-3.3 0-6-2.7-6-6s2.7-6 6-6 6 2.7 6 6-2.7 6-6 6m0 25c-3.3 0-6-2.7-6-6s2.7-6 6-6 6 2.7 6 6-2.7 6-6 6m0 25c-3.3 0-6-2.7-6-6s2.7-6 6-6 6 2.7 6 6-2.7 6-6 6m0 25c-3.3 0-6-2.7-6-6s2.7-6 6-6 6 2.7 6 6-2.7 6-6 6m0 25c-3.3 0-6-2.7-6-6s2.7-6 6-6 6 2.7 6 6-2.7 6-6 6m0 25c-3.3 0-6-2.7-6-6s2.7-6 6-6 6 2.7 6 6-2.7 6-6 6m0 25c-3.3 0-6-2.7-6-6s2.7-6 6-6 6 2.7 6 6-2.7 6-6 6m0 25c-3.3 0-6-2.7-6-6s2.7-6 6-6 6 2.7 6 6-2.7 6-6 6m0 25c-3.3 0-6-2.7-6-6s2.7-6 6-6 6 2.7 6 6-2.7 6-6 6m0 25c-3.3 0-6-2.7-6-6s2.7-6 6-6 6 2.7 6 6-2.7 6-6 6m0 25c-3.3 0-6-2.7-6-6s2.7-6 6-6 6 2.7 6 6-2.7 6-6 6m0 25c-3.3 0-6-2.7-6-6s2.7-6 6-6 6 2.7 6 6-2.7 6-6 6m0 25c-3.3 0-6-2.7-6-6s2.7-6 6-6 6 2.7 6 6-2.7 6-6 6m0 25c-3.3 0-6-2.7-6-6s2.7-6 6-6 6 2.7 6 6-2.7 6-6 6" fill="#000"/><g transform="translate(94 393)"><mask id="av" fill="#fff"><use xlink:href="#au"/></mask><path d="M6 13c-3.3 0-6-2.7-6-6s2.7-6 6-6 6 2.7 6 6-2.7 6-6 6" fill="#000" mask="url(#av)"/></g><path d="M125 31c-3.3 0-6-2.7-6-6s2.7-6 6-6 6 2.7 6 6-2.7 6-6 6m0 25c-3.3 0-6-2.7-6-6s2.7-6 6-6 6 2.7 6 6-2.7 6-6 6m0 25c-3.3 0-6-2.7-6-6s2.7-6 6-6 6 2.7 6 6-2.7 6-6 6m0 25c-3.3 0-6-2.7-6-6s2.7-6 6-6 6 2.7 6 6-2.7 6-6 6m0 25c-3.3 0-6-2.7-6-6s2.7-6 6-6 6 2.7 6 6-2.7 6-6 6m0 25c-3.3 0-6-2.7-6-6s2.7-6 6-6 6 2.7 6 6-2.7 6-6 6m0 25c-3.3 0-6-2.7-6-6s2.7-6 6-6 6 2.7 6 6-2.7 6-6 6m0 25c-3.3 0-6-2.7-6-6s2.7-6 6-6 6 2.7 6 6-2.7 6-6 6m0 25c-3.3 0-6-2.7-6-6s2.7-6 6-6 6 2.7 6 6-2.7 6-6 6m0 25c-3.3 0-6-2.7-6-6s2.7-6 6-6 6 2.7 6 6-2.7 6-6 6m0 25c-3.3 0-6-2.7-6-6s2.7-6 6-6 6 2.7 6 6-2.7 6-6 6m0 25c-3.3 0-6-2.7-6-6s2.7-6 6-6 6 2.7 6 6-2.7 6-6 6m0 25c-3.3 0-6-2.7-6-6s2.7-6 6-6 6 2.7 6 6-2.7 6-6 6m0 25c-3.3 0-6-2.7-6-6s2.7-6 6-6 6 2.7 6 6-2.7 6-6 6m0 25c-3.3 0-6-2.7-6-6s2.7-6 6-6 6 2.7 6 6-2.7 6-6 6" fill="#000"/><g transform="translate(119 393)"><mask id="ax" fill="#fff"><use xlink:href="#aw"/></mask><path d="M6 13c-3.3 0-6-2.7-6-6s2.7-6 6-6 6 2.7 6 6-2.7 6-6 6" fill="#000" mask="url(#ax)"/></g><path d="M150 31c-3.3 0-6-2.7-6-6s2.7-6 6-6 6 2.7 6 6-2.7 6-6 6m0 25c-3.3 0-6-2.7-6-6s2.7-6 6-6 6 2.7 6 6-2.7 6-6 6m0 25c-3.3 0-6-2.7-6-6s2.7-6 6-6 6 2.7 6 6-2.7 6-6 6m0 25c-3.3 0-6-2.7-6-6s2.7-6 6-6 6 2.7 6 6-2.7 6-6 6m0 25c-3.3 0-6-2.7-6-6s2.7-6 6-6 6 2.7 6 6-2.7 6-6 6m0 25c-3.3 0-6-2.7-6-6s2.7-6 6-6 6 2.7 6 6-2.7 6-6 6m0 25c-3.3 0-6-2.7-6-6s2.7-6 6-6 6 2.7 6 6-2.7 6-6 6m0 25c-3.3 0-6-2.7-6-6s2.7-6 6-6 6 2.7 6 6-2.7 6-6 6m0 25c-3.3 0-6-2.7-6-6s2.7-6 6-6 6 2.7 6 6-2.7 6-6 6m0 25c-3.3 0-6-2.7-6-6s2.7-6 6-6 6 2.7 6 6-2.7 6-6 6m0 25c-3.3 0-6-2.7-6-6s2.7-6 6-6 6 2.7 6 6-2.7 6-6 6m0 25c-3.3 0-6-2.7-6-6s2.7-6 6-6 6 2.7 6 6-2.7 6-6 6m0 25c-3.3 0-6-2.7-6-6s2.7-6 6-6 6 2.7 6 6-2.7 6-6 6m0 25c-3.3 0-6-2.7-6-6s2.7-6 6-6 6 2.7 6 6-2.7 6-6 6m0 25c-3.3 0-6-2.7-6-6s2.7-6 6-6 6 2.7 6 6-2.7 6-6 6" fill="#000"/><g transform="translate(144 393)"><mask id="az" fill="#fff"><use xlink:href="#ay"/></mask><path d="M6 13c-3.3 0-6-2.7-6-6s2.7-6 6-6 6 2.7 6 6-2.7 6-6 6" fill="#000" mask="url(#az)"/></g><path d="M175 31c-3.3 0-6-2.7-6-6s2.7-6 6-6 6 2.7 6 6-2.7 6-6 6m0 25c-3.3 0-6-2.7-6-6s2.7-6 6-6 6 2.7 6 6-2.7 6-6 6m0 25c-3.3 0-6-2.7-6-6s2.7-6 6-6 6 2.7 6 6-2.7 6-6 6m0 25c-3.3 0-6-2.7-6-6s2.7-6 6-6 6 2.7 6 6-2.7 6-6 6m0 25c-3.3 0-6-2.7-6-6s2.7-6 6-6 6 2.7 6 6-2.7 6-6 6m0 25c-3.3 0-6-2.7-6-6s2.7-6 6-6 6 2.7 6 6-2.7 6-6 6m0 25c-3.3 0-6-2.7-6-6s2.7-6 6-6 6 2.7 6 6-2.7 6-6 6m0 25c-3.3 0-6-2.7-6-6s2.7-6 6-6 6 2.7 6 6-2.7 6-6 6m0 25c-3.3 0-6-2.7-6-6s2.7-6 6-6 6 2.7 6 6-2.7 6-6 6m0 25c-3.3 0-6-2.7-6-6s2.7-6 6-6 6 2.7 6 6-2.7 6-6 6m0 25c-3.3 0-6-2.7-6-6s2.7-6 6-6 6 2.7 6 6-2.7 6-6 6m0 25c-3.3 0-6-2.7-6-6s2.7-6 6-6 6 2.7 6 6-2.7 6-6 6m0 25c-3.3 0-6-2.7-6-6s2.7-6 6-6 6 2.7 6 6-2.7 6-6 6m0 25c-3.3 0-6-2.7-6-6s2.7-6 6-6 6 2.7 6 6-2.7 6-6 6m0 25c-3.3 0-6-2.7-6-6s2.7-6 6-6 6 2.7 6 6-2.7 6-6 6" fill="#000"/><g transform="translate(169 393)"><mask id="aB" fill="#fff"><use xlink:href="#aA"/></mask><path d="M6 13c-3.3 0-6-2.7-6-6s2.7-6 6-6 6 2.7 6 6-2.7 6-6 6" fill="#000" mask="url(#aB)"/></g><path d="M200 31c-3.3 0-6-2.7-6-6s2.7-6 6-6 6 2.7 6 6-2.7 6-6 6m0 25c-3.3 0-6-2.7-6-6s2.7-6 6-6 6 2.7 6 6-2.7 6-6 6m0 25c-3.3 0-6-2.7-6-6s2.7-6 6-6 6 2.7 6 6-2.7 6-6 6m0 25c-3.3 0-6-2.7-6-6s2.7-6 6-6 6 2.7 6 6-2.7 6-6 6m0 25c-3.3 0-6-2.7-6-6s2.7-6 6-6 6 2.7 6 6-2.7 6-6 6m0 25c-3.3 0-6-2.7-6-6s2.7-6 6-6 6 2.7 6 6-2.7 6-6 6m0 25c-3.3 0-6-2.7-6-6s2.7-6 6-6 6 2.7 6 6-2.7 6-6 6m0 25c-3.3 0-6-2.7-6-6s2.7-6 6-6 6 2.7 6 6-2.7 6-6 6m0 25c-3.3 0-6-2.7-6-6s2.7-6 6-6 6 2.7 6 6-2.7 6-6 6m0 25c-3.3 0-6-2.7-6-6s2.7-6 6-6 6 2.7 6 6-2.7 6-6 6m0 25c-3.3 0-6-2.7-6-6s2.7-6 6-6 6 2.7 6 6-2.7 6-6 6m0 25c-3.3 0-6-2.7-6-6s2.7-6 6-6 6 2.7 6 6-2.7 6-6 6m0 25c-3.3 0-6-2.7-6-6s2.7-6 6-6 6 2.7 6 6-2.7 6-6 6m0 25c-3.3 0-6-2.7-6-6s2.7-6 6-6 6 2.7 6 6-2.7 6-6 6m0 25c-3.3 0-6-2.7-6-6s2.7-6 6-6 6 2.7 6 6-2.7 6-6 6" fill="#000"/><g transform="translate(194 393)"><mask id="aD" fill="#fff"><use xlink:href="#aC"/></mask><path d="M6 13c-3.3 0-6-2.7-6-6s2.7-6 6-6 6 2.7 6 6-2.7 6-6 6" fill="#000" mask="url(#aD)"/></g><path d="M225 31c-3.3 0-6-2.7-6-6s2.7-6 6-6 6 2.7 6 6-2.7 6-6 6m0 25c-3.3 0-6-2.7-6-6s2.7-6 6-6 6 2.7 6 6-2.7 6-6 6m0 25c-3.3 0-6-2.7-6-6s2.7-6 6-6 6 2.7 6 6-2.7 6-6 6m0 25c-3.3 0-6-2.7-6-6s2.7-6 6-6 6 2.7 6 6-2.7 6-6 6m0 25c-3.3 0-6-2.7-6-6s2.7-6 6-6 6 2.7 6 6-2.7 6-6 6m0 25c-3.3 0-6-2.7-6-6s2.7-6 6-6 6 2.7 6 6-2.7 6-6 6m0 25c-3.3 0-6-2.7-6-6s2.7-6 6-6 6 2.7 6 6-2.7 6-6 6m0 25c-3.3 0-6-2.7-6-6s2.7-6 6-6 6 2.7 6 6-2.7 6-6 6m0 25c-3.3 0-6-2.7-6-6s2.7-6 6-6 6 2.7 6 6-2.7 6-6 6m0 25c-3.3 0-6-2.7-6-6s2.7-6 6-6 6 2.7 6 6-2.7 6-6 6m0 25c-3.3 0-6-2.7-6-6s2.7-6 6-6 6 2.7 6 6-2.7 6-6 6m0 25c-3.3 0-6-2.7-6-6s2.7-6 6-6 6 2.7 6 6-2.7 6-6 6m0 25c-3.3 0-6-2.7-6-6s2.7-6 6-6 6 2.7 6 6-2.7 6-6 6m0 25c-3.3 0-6-2.7-6-6s2.7-6 6-6 6 2.7 6 6-2.7 6-6 6m0 25c-3.3 0-6-2.7-6-6s2.7-6 6-6 6 2.7 6 6-2.7 6-6 6" fill="#000"/><g transform="translate(219 393)"><mask id="aF" fill="#fff"><use xlink:href="#aE"/></mask><path d="M6 13c-3.3 0-6-2.7-6-6s2.7-6 6-6 6 2.7 6 6-2.7 6-6 6" fill="#000" mask="url(#aF)"/></g><path d="M250 31c-3.3 0-6-2.7-6-6s2.7-6 6-6 6 2.7 6 6-2.7 6-6 6m0 25c-3.3 0-6-2.7-6-6s2.7-6 6-6 6 2.7 6 6-2.7 6-6 6m0 25c-3.3 0-6-2.7-6-6s2.7-6 6-6 6 2.7 6 6-2.7 6-6 6m0 25c-3.3 0-6-2.7-6-6s2.7-6 6-6 6 2.7 6 6-2.7 6-6 6m0 25c-3.3 0-6-2.7-6-6s2.7-6 6-6 6 2.7 6 6-2.7 6-6 6m0 25c-3.3 0-6-2.7-6-6s2.7-6 6-6 6 2.7 6 6-2.7 6-6 6m0 25c-3.3 0-6-2.7-6-6s2.7-6 6-6 6 2.7 6 6-2.7 6-6 6m0 25c-3.3 0-6-2.7-6-6s2.7-6 6-6 6 2.7 6 6-2.7 6-6 6m0 25c-3.3 0-6-2.7-6-6s2.7-6 6-6 6 2.7 6 6-2.7 6-6 6m0 25c-3.3 0-6-2.7-6-6s2.7-6 6-6 6 2.7 6 6-2.7 6-6 6m0 25c-3.3 0-6-2.7-6-6s2.7-6 6-6 6 2.7 6 6-2.7 6-6 6m0 25c-3.3 0-6-2.7-6-6s2.7-6 6-6 6 2.7 6 6-2.7 6-6 6m0 25c-3.3 0-6-2.7-6-6s2.7-6 6-6 6 2.7 6 6-2.7 6-6 6m0 25c-3.3 0-6-2.7-6-6s2.7-6 6-6 6 2.7 6 6-2.7 6-6 6m0 25c-3.3 0-6-2.7-6-6s2.7-6 6-6 6 2.7 6 6-2.7 6-6 6" fill="#000"/><g transform="translate(244 393)"><mask id="aH" fill="#fff"><use xlink:href="#aG"/></mask><path d="M6 13c-3.3 0-6-2.7-6-6s2.7-6 6-6 6 2.7 6 6-2.7 6-6 6" fill="#000" mask="url(#aH)"/></g><path d="M275 31c-3.3 0-6-2.7-6-6s2.7-6 6-6 6 2.7 6 6-2.7 6-6 6m0 25c-3.3 0-6-2.7-6-6s2.7-6 6-6 6 2.7 6 6-2.7 6-6 6m0 25c-3.3 0-6-2.7-6-6s2.7-6 6-6 6 2.7 6 6-2.7 6-6 6m0 25c-3.3 0-6-2.7-6-6s2.7-6 6-6 6 2.7 6 6-2.7 6-6 6m0 25c-3.3 0-6-2.7-6-6s2.7-6 6-6 6 2.7 6 6-2.7 6-6 6m0 25c-3.3 0-6-2.7-6-6s2.7-6 6-6 6 2.7 6 6-2.7 6-6 6m0 25c-3.3 0-6-2.7-6-6s2.7-6 6-6 6 2.7 6 6-2.7 6-6 6m0 25c-3.3 0-6-2.7-6-6s2.7-6 6-6 6 2.7 6 6-2.7 6-6 6m0 25c-3.3 0-6-2.7-6-6s2.7-6 6-6 6 2.7 6 6-2.7 6-6 6m0 25c-3.3 0-6-2.7-6-6s2.7-6 6-6 6 2.7 6 6-2.7 6-6 6m0 25c-3.3 0-6-2.7-6-6s2.7-6 6-6 6 2.7 6 6-2.7 6-6 6m0 25c-3.3 0-6-2.7-6-6s2.7-6 6-6 6 2.7 6 6-2.7 6-6 6m0 25c-3.3 0-6-2.7-6-6s2.7-6 6-6 6 2.7 6 6-2.7 6-6 6m0 25c-3.3 0-6-2.7-6-6s2.7-6 6-6 6 2.7 6 6-2.7 6-6 6m0 25c-3.3 0-6-2.7-6-6s2.7-6 6-6 6 2.7 6 6-2.7 6-6 6" fill="#000"/><g transform="translate(269 393)"><mask id="aJ" fill="#fff"><use xlink:href="#aI"/></mask><path d="M6 13c-3.3 0-6-2.7-6-6s2.7-6 6-6 6 2.7 6 6-2.7 6-6 6" fill="#000" mask="url(#aJ)"/></g><path d="M300 31c-3.3 0-6-2.7-6-6s2.7-6 6-6 6 2.7 6 6-2.7 6-6 6m0 25c-3.3 0-6-2.7-6-6s2.7-6 6-6 6 2.7 6 6-2.7 6-6 6m0 25c-3.3 0-6-2.7-6-6s2.7-6 6-6 6 2.7 6 6-2.7 6-6 6m0 25c-3.3 0-6-2.7-6-6s2.7-6 6-6 6 2.7 6 6-2.7 6-6 6m0 25c-3.3 0-6-2.7-6-6s2.7-6 6-6 6 2.7 6 6-2.7 6-6 6m0 25c-3.3 0-6-2.7-6-6s2.7-6 6-6 6 2.7 6 6-2.7 6-6 6m0 25c-3.3 0-6-2.7-6-6s2.7-6 6-6 6 2.7 6 6-2.7 6-6 6m0 25c-3.3 0-6-2.7-6-6s2.7-6 6-6 6 2.7 6 6-2.7 6-6 6m0 25c-3.3 0-6-2.7-6-6s2.7-6 6-6 6 2.7 6 6-2.7 6-6 6m0 25c-3.3 0-6-2.7-6-6s2.7-6 6-6 6 2.7 6 6-2.7 6-6 6m0 25c-3.3 0-6-2.7-6-6s2.7-6 6-6 6 2.7 6 6-2.7 6-6 6m0 25c-3.3 0-6-2.7-6-6s2.7-6 6-6 6 2.7 6 6-2.7 6-6 6m0 25c-3.3 0-6-2.7-6-6s2.7-6 6-6 6 2.7 6 6-2.7 6-6 6m0 25c-3.3 0-6-2.7-6-6s2.7-6 6-6 6 2.7 6 6-2.7 6-6 6m0 25c-3.3 0-6-2.7-6-6s2.7-6 6-6 6 2.7 6 6-2.7 6-6 6" fill="#000"/><g transform="translate(294 393)"><mask id="aL" fill="#fff"><use xlink:href="#aK"/></mask><path d="M6 13c-3.3 0-6-2.7-6-6s2.7-6 6-6 6 2.7 6 6-2.7 6-6 6" fill="#000" mask="url(#aL)"/></g><path d="M325 31c-3.3 0-6-2.7-6-6s2.7-6 6-6 6 2.7 6 6-2.7 6-6 6m0 25c-3.3 0-6-2.7-6-6s2.7-6 6-6 6 2.7 6 6-2.7 6-6 6m0 25c-3.3 0-6-2.7-6-6s2.7-6 6-6 6 2.7 6 6-2.7 6-6 6m0 25c-3.3 0-6-2.7-6-6s2.7-6 6-6 6 2.7 6 6-2.7 6-6 6m0 25c-3.3 0-6-2.7-6-6s2.7-6 6-6 6 2.7 6 6-2.7 6-6 6m0 25c-3.3 0-6-2.7-6-6s2.7-6 6-6 6 2.7 6 6-2.7 6-6 6m0 25c-3.3 0-6-2.7-6-6s2.7-6 6-6 6 2.7 6 6-2.7 6-6 6m0 25c-3.3 0-6-2.7-6-6s2.7-6 6-6 6 2.7 6 6-2.7 6-6 6m0 25c-3.3 0-6-2.7-6-6s2.7-6 6-6 6 2.7 6 6-2.7 6-6 6m0 25c-3.3 0-6-2.7-6-6s2.7-6 6-6 6 2.7 6 6-2.7 6-6 6m0 25c-3.3 0-6-2.7-6-6s2.7-6 6-6 6 2.7 6 6-2.7 6-6 6m0 25c-3.3 0-6-2.7-6-6s2.7-6 6-6 6 2.7 6 6-2.7 6-6 6m0 25c-3.3 0-6-2.7-6-6s2.7-6 6-6 6 2.7 6 6-2.7 6-6 6m0 25c-3.3 0-6-2.7-6-6s2.7-6 6-6 6 2.7 6 6-2.7 6-6 6m0 25c-3.3 0-6-2.7-6-6s2.7-6 6-6 6 2.7 6 6-2.7 6-6 6" fill="#000"/><g transform="translate(319 393)"><mask id="aN" fill="#fff"><use xlink:href="#aM"/></mask><path d="M6 13c-3.3 0-6-2.7-6-6s2.7-6 6-6 6 2.7 6 6-2.7 6-6 6" fill="#000" mask="url(#aN)"/></g><path d="M350 31c-3.3 0-6-2.7-6-6s2.7-6 6-6 6 2.7 6 6-2.7 6-6 6m0 25c-3.3 0-6-2.7-6-6s2.7-6 6-6 6 2.7 6 6-2.7 6-6 6m0 25c-3.3 0-6-2.7-6-6s2.7-6 6-6 6 2.7 6 6-2.7 6-6 6m0 25c-3.3 0-6-2.7-6-6s2.7-6 6-6 6 2.7 6 6-2.7 6-6 6m0 25c-3.3 0-6-2.7-6-6s2.7-6 6-6 6 2.7 6 6-2.7 6-6 6m0 25c-3.3 0-6-2.7-6-6s2.7-6 6-6 6 2.7 6 6-2.7 6-6 6m0 25c-3.3 0-6-2.7-6-6s2.7-6 6-6 6 2.7 6 6-2.7 6-6 6m0 25c-3.3 0-6-2.7-6-6s2.7-6 6-6 6 2.7 6 6-2.7 6-6 6m0 25c-3.3 0-6-2.7-6-6s2.7-6 6-6 6 2.7 6 6-2.7 6-6 6m0 25c-3.3 0-6-2.7-6-6s2.7-6 6-6 6 2.7 6 6-2.7 6-6 6m0 25c-3.3 0-6-2.7-6-6s2.7-6 6-6 6 2.7 6 6-2.7 6-6 6m0 25c-3.3 0-6-2.7-6-6s2.7-6 6-6 6 2.7 6 6-2.7 6-6 6m0 25c-3.3 0-6-2.7-6-6s2.7-6 6-6 6 2.7 6 6-2.7 6-6 6m0 25c-3.3 0-6-2.7-6-6s2.7-6 6-6 6 2.7 6 6-2.7 6-6 6m0 25c-3.3 0-6-2.7-6-6s2.7-6 6-6 6 2.7 6 6-2.7 6-6 6" fill="#000"/><g transform="translate(344 393)"><mask id="aP" fill="#fff"><use xlink:href="#aO"/></mask><path d="M6 13c-3.3 0-6-2.7-6-6s2.7-6 6-6 6 2.7 6 6-2.7 6-6 6" fill="#000" mask="url(#aP)"/></g><path d="M375 31c-3.3 0-6-2.7-6-6s2.7-6 6-6 6 2.7 6 6-2.7 6-6 6m0 25c-3.3 0-6-2.7-6-6s2.7-6 6-6 6 2.7 6 6-2.7 6-6 6m0 25c-3.3 0-6-2.7-6-6s2.7-6 6-6 6 2.7 6 6-2.7 6-6 6m0 25c-3.3 0-6-2.7-6-6s2.7-6 6-6 6 2.7 6 6-2.7 6-6 6m0 25c-3.3 0-6-2.7-6-6s2.7-6 6-6 6 2.7 6 6-2.7 6-6 6m0 25c-3.3 0-6-2.7-6-6s2.7-6 6-6 6 2.7 6 6-2.7 6-6 6m0 25c-3.3 0-6-2.7-6-6s2.7-6 6-6 6 2.7 6 6-2.7 6-6 6m0 25c-3.3 0-6-2.7-6-6s2.7-6 6-6 6 2.7 6 6-2.7 6-6 6m0 25c-3.3 0-6-2.7-6-6s2.7-6 6-6 6 2.7 6 6-2.7 6-6 6m0 25c-3.3 0-6-2.7-6-6s2.7-6 6-6 6 2.7 6 6-2.7 6-6 6m0 25c-3.3 0-6-2.7-6-6s2.7-6 6-6 6 2.7 6 6-2.7 6-6 6m0 25c-3.3 0-6-2.7-6-6s2.7-6 6-6 6 2.7 6 6-2.7 6-6 6m0 25c-3.3 0-6-2.7-6-6s2.7-6 6-6 6 2.7 6 6-2.7 6-6 6m0 25c-3.3 0-6-2.7-6-6s2.7-6 6-6 6 2.7 6 6-2.7 6-6 6m0 25c-3.3 0-6-2.7-6-6s2.7-6 6-6 6 2.7 6 6-2.7 6-6 6" fill="#000"/><g transform="translate(369 393)"><mask id="aR" fill="#fff"><use xlink:href="#aQ"/></mask><path d="M6 13c-3.3 0-6-2.7-6-6s2.7-6 6-6 6 2.7 6 6-2.7 6-6 6" fill="#000" mask="url(#aR)"/></g><g transform="translate(394 18)"><mask id="aT" fill="#fff"><use xlink:href="#aS"/></mask><path d="M6 13c-3.3 0-6-2.7-6-6s2.7-6 6-6 6 2.7 6 6-2.7 6-6 6" fill="#000" mask="url(#aT)"/></g><g transform="translate(394 43)"><mask id="aV" fill="#fff"><use xlink:href="#aU"/></mask><path d="M6 13c-3.3 0-6-2.7-6-6s2.7-6 6-6 6 2.7 6 6-2.7 6-6 6" fill="#000" mask="url(#aV)"/></g><g transform="translate(394 68)"><mask id="aX" fill="#fff"><use xlink:href="#aW"/></mask><path d="M6 13c-3.3 0-6-2.7-6-6s2.7-6 6-6 6 2.7 6 6-2.7 6-6 6" fill="#000" mask="url(#aX)"/></g><g transform="translate(394 93)"><mask id="aZ" fill="#fff"><use xlink:href="#aY"/></mask><path d="M6 13c-3.3 0-6-2.7-6-6s2.7-6 6-6 6 2.7 6 6-2.7 6-6 6" fill="#000" mask="url(#aZ)"/></g><g transform="translate(394 118)"><mask id="bb" fill="#fff"><use xlink:href="#ba"/></mask><path d="M6 13c-3.3 0-6-2.7-6-6s2.7-6 6-6 6 2.7 6 6-2.7 6-6 6" fill="#000" mask="url(#bb)"/></g><g transform="translate(394 143)"><mask id="bd" fill="#fff"><use xlink:href="#bc"/></mask><path d="M6 13c-3.3 0-6-2.7-6-6s2.7-6 6-6 6 2.7 6 6-2.7 6-6 6" fill="#000" mask="url(#bd)"/></g><g transform="translate(394 168)"><mask id="bf" fill="#fff"><use xlink:href="#be"/></mask><path d="M6 13c-3.3 0-6-2.7-6-6s2.7-6 6-6 6 2.7 6 6-2.7 6-6 6" fill="#000" mask="url(#bf)"/></g><g transform="translate(394 193)"><mask id="bh" fill="#fff"><use xlink:href="#bg"/></mask><path d="M6 13c-3.3 0-6-2.7-6-6s2.7-6 6-6 6 2.7 6 6-2.7 6-6 6" fill="#000" mask="url(#bh)"/></g><g transform="translate(394 218)"><mask id="bj" fill="#fff"><use xlink:href="#bi"/></mask><path d="M6 13c-3.3 0-6-2.7-6-6s2.7-6 6-6 6 2.7 6 6-2.7 6-6 6" fill="#000" mask="url(#bj)"/></g><g transform="translate(394 243)"><mask id="bl" fill="#fff"><use xlink:href="#bk"/></mask><path d="M6 13c-3.3 0-6-2.7-6-6s2.7-6 6-6 6 2.7 6 6-2.7 6-6 6" fill="#000" mask="url(#bl)"/></g><g transform="translate(394 268)"><mask id="bn" fill="#fff"><use xlink:href="#bm"/></mask><path d="M6 13c-3.3 0-6-2.7-6-6s2.7-6 6-6 6 2.7 6 6-2.7 6-6 6" fill="#000" mask="url(#bn)"/></g><g transform="translate(394 293)"><mask id="bp" fill="#fff"><use xlink:href="#bo"/></mask><path d="M6 13c-3.3 0-6-2.7-6-6s2.7-6 6-6 6 2.7 6 6-2.7 6-6 6" fill="#000" mask="url(#bp)"/></g><g transform="translate(394 318)"><mask id="br" fill="#fff"><use xlink:href="#bq"/></mask><path d="M6 13c-3.3 0-6-2.7-6-6s2.7-6 6-6 6 2.7 6 6-2.7 6-6 6" fill="#000" mask="url(#br)"/></g><g transform="translate(394 343)"><mask id="bt" fill="#fff"><use xlink:href="#bs"/></mask><path d="M6 13c-3.3 0-6-2.7-6-6s2.7-6 6-6 6 2.7 6 6-2.7 6-6 6" fill="#000" mask="url(#bt)"/></g><g transform="translate(394 368)"><mask id="bv" fill="#fff"><use xlink:href="#bu"/></mask><path d="M6 13c-3.3 0-6-2.7-6-6s2.7-6 6-6 6 2.7 6 6-2.7 6-6 6" fill="#000" mask="url(#bv)"/></g><g transform="translate(394 393)"><mask id="bx" fill="#fff"><use xlink:href="#bw"/></mask><path d="M6 13c-3.3 0-6-2.7-6-6s2.7-6 6-6 6 2.7 6 6-2.7 6-6 6" fill="#000" mask="url(#bx)"/></g></g></svg>
