<svg width="439" height="476" viewBox="0 0 439 476" xmlns="http://www.w3.org/2000/svg"><g fill="none" fill-rule="evenodd"><path d="M70.23 469.1c1.9-.2 2.63-1.1 2.43-3l-2.8-26.6 5.33 7.78c1 1.64 2.2 2.2 4.2 2l3-.32c1.9-.2 3-1 3.7-2.84l3.6-8.7L92.6 464c.2 1.9 1.04 2.64 3 2.44l11.64-1.23c1.88-.1 2.63-1.1 2.43-3l-5.14-48.9c-.2-1.9-1.12-2.6-3-2.4l-12.23 1.3c-1.6.2-2.58.9-3.3 2.7l-5.4 13c-.44 1-.6 1.4-1.2 1.5l-.7.1c-.6.1-.88-.3-1.5-1.1l-8.1-11.6c-1.08-1.5-2.1-2-3.7-1.9L53.23 416c-1.9.2-2.63 1.12-2.43 3l5.15 48.94c.2 1.9 1.12 2.6 3 2.4l11.26-1.2zm99.15-24.85c.97 9.2-2.9 15.88-21.8 17.87-18.88 1.98-24.13-3.73-25.1-12.94l-2.7-25.75c-.98-9.22 2.97-15.97 21.85-17.95 18.88-2 24.07 3.8 25.04 13.02l2.7 25.75zm-30.04.4c.2 2.05 1.28 3.46 6.7 2.9 5.53-.6 6.2-2.18 5.98-4.22L149.9 423c-.22-1.95-1.2-3.38-6.72-2.8-5.44.57-6.18 2.18-5.98 4.14l2.14 20.32zm58.35-30.18l1 9.67 5.6-.6c2.6-.27 3.1-1.85 2.9-3.9l-.3-2.56c-.2-2.04-1.1-3.48-3.7-3.2l-5.7.6zm1.5 41.07l-11.7 1.23c-1.9.2-2.8-.55-3-2.44l-5.2-48.94c-.2-1.9.5-2.8 2.4-3l25.1-2.7c11.3-1.2 15.4 3.6 16.2 11l.3 3.4c.4 4.2-.3 7.3-3.4 9 5.5 0 9.6 3.6 10.3 10l1.6 16c.2 1.9-.6 2.8-2.5 3l-11.7 1.2c-1.9.2-2.8-.6-3-2.5l-1.3-11.6c-.2-2.3-1.1-3.2-3.2-3l-10.5 1.2 1.6 14.8c.2 1.9-.6 2.8-2.5 3zm83.9-8.82c1.9-.2 2.6-1.12 2.4-3l-1-8.84c-.2-1.9-1.1-2.63-3-2.44l-20.9 2.2-.7-6.5 14.7-1.55c1.9-.2 2.6-1.2 2.4-3l-.8-8.1c-.2-1.9-1.1-2.7-3-2.5l-14.7 1.5-.6-5.8 20.8-2.2c1.9-.2 2.6-1.1 2.4-3l-1-8.9c-.2-1.9-1.1-2.7-3-2.5l-35.1 3.7c-1.9.2-2.6 1.1-2.4 3l5.1 48.9c.2 1.9 1.1 2.6 3 2.4l35-3.7zm33-3.47c1.8-.2 2.6-1.1 2.4-3l-1.6-15.33c-.2-1.97-1.1-2.64-3-2.44l-15.3 1.6c-1.9.2-2.7 1.05-2.5 3l1.6 15.34c.2 1.9 1.1 2.63 3 2.44l15.2-1.6zm33.4-3.5c1.8-.2 2.6-1.13 2.4-3.02l-1.6-15.33c-.3-1.96-1.2-2.63-3.1-2.43l-15.3 1.6c-1.9.2-2.7 1.04-2.5 3l1.6 15.34c.2 1.9 1.1 2.7 3 2.5l15.2-1.6zm33.4-3.53c1.9-.2 2.6-1.1 2.4-3l-1.7-15.33c-.2-2-1.2-2.7-3-2.5l-15.2 1.6c-1.9.2-2.7 1-2.5 3l1.6 15.3c.2 1.9 1.1 2.6 3 2.4l15.2-1.6zm43.5-25.42c7.1-1.74 11.3-5.3 10.4-13.77l-.9-7.93c-.9-8.6-7.3-12.68-17.1-11.65l-24.4 2.57c-1.9.2-2.7 1.1-2.5 3l.9 9.14c.2 1.96 1.1 2.63 3 2.43l20.8-2.2c1.3-.2 2.1.4 2.2 1.9.1 1.5-.3 2.1-1.8 2.5l-14.8 3.7c-1.9.4-2.7 1.4-2.2 3.3l2.6 9.8c.5 1.8 1.3 2.4 3.2 2l20.1-5zm-6.3 21.5c1.9-.2 2.6-1.1 2.4-3l-1.1-9.9c-.2-1.96-1.1-2.62-3-2.43l-13.8 1.46c-2 .2-2.6 1.04-2.4 3l1 9.9c.2 1.88 1.1 2.63 3 2.43l13.8-1.46z" fill="#F8EF4F"/><path d="M79.9 436.16c1.72-.18 1.95-.7 3.33-3.37l7.3-14.2c.47-1 1.16-1.4 1.94-1.4l1.2-.2c1.36-.2 2 .4 2.17 2l3.8 36.2-.7.1-3.82-36.3c-.08-.8-.37-1.5-1.36-1.4l-1.07.1c-.7 0-1.1.2-1.6 1.1L83.8 433c-1.5 2.74-1.8 3.57-3.9 3.8-2.08.2-2.6-.53-4.57-2.9l-10.07-12.2c-.67-.88-1.17-.9-1.8-.83l-1.08.1c-1 .1-1.08.84-1 1.62l3.82 36.2-.7.1-3.84-36.3c-.16-1.6.34-2.3 1.62-2.4l1.2-.2c.8-.1 1.6.1 2.27 1l10.1 12.3c1.9 2.3 2.24 2.8 3.95 2.6zm-9 28.7c1.78-.2 2.48-1.07 2.3-2.85l-2.64-25 5.02 7.4c1.02 1.6 2.16 2.1 4 1.9l2.86-.3c1.85-.2 2.86-.9 3.54-2.6l3.4-8.2L92 460c.2 1.8.98 2.5 2.84 2.3l10.97-1.15c1.8-.2 2.5-1.06 2.3-2.84l-4.8-46.1c-.2-1.8-1-2.5-2.8-2.3L89 411.1c-1.5.17-2.36.8-3.05 2.5l-5.12 12.27c-.4.9-.56 1.3-1.13 1.36l-.65.07c-.56.05-.8-.3-1.4-1.1l-7.7-11c-1-1.47-2-1.94-3.5-1.8L55 414.6c-1.8.2-2.5 1.08-2.3 2.86l4.85 46.17c.12 1.78 1 2.48 2.8 2.3l10.6-1.12zm2.28-.18l-8.45 8.67c-.38.47-1.14.84-2.13.94l-10.62 1.1c-2.28.2-3.38-.7-3.62-3l-4.86-46.1c-.13-1.3.14-2.1.73-2.8l8.37-8.8c.45-.5 1.22-.8 2.2-.9l11.48-1.2c1.8-.2 2.92.3 4.2 2l5.77 8.4.52-1.2c.28-.8.65-1.4 1.1-1.9l8.38-8.7c.73-.6 1.4-1 2.55-1.1l11.54-1.2c2.28-.2 3.38.7 3.62 2.9l4.86 46.1c.13 1.3-.14 2.1-.72 2.7l-8.46 8.6c-.38.4-1.13.8-2.13.9l-10.9 1.1c-2.3.2-3.4-.7-3.6-2.9L81 450l-3.8 3.9c-.7.7-1.6 1.15-2.9 1.3l-.94.1.68 6.55c.17 1.2-.1 2.1-.7 2.7zm83.4-3.72c-3.06 3.2-8.6 5.44-18.06 6.43-18.67 1.9-23.76-6-24.7-15l-2.33-22.2c-.5-4.4.2-8.3 3.1-11.4l8.4-8.7c3-3.2 8.5-5.5 18-6.5 18.6-2 23.4 3.9 24.4 12.9l2.5 24.3c.4 4.4-.2 8.2-3.2 11.3l-8.4 8.6zm10.8-19.87l-2.56-24.3c-.9-8.7-5.8-14.2-23.62-12.3-17.8 1.8-21.54 8.2-20.62 16.9l2.55 24.3c.92 8.7 5.88 14 23.7 12.2 17.8-1.9 21.46-8.2 20.55-16.9zm-7.94-.9c.6 5.7-2.27 9.9-13.45 11.1-11.2 1.1-14.8-2.4-15.4-8.1l-2.2-21.1c-.6-5.8 2.1-10 13.3-11.1 11.2-1.2 14.8 2.3 15.5 8.1l2.2 21zm-28.07 2.9c.56 5.3 3.93 8.6 14.54 7.4 10.7-1.1 13.4-5 12.9-10.4l-2.2-21c-.5-5.4-4.1-8.6-14.7-7.5-10.6 1.1-13.2 5-12.6 10.3l2.2 21zm7.67-1.8l-2.02-19.2c-.2-1.9.5-3.4 5.64-3.9 5.2-.6 6.14.8 6.33 2.6l2 19.1c.2 1.9-.5 3.4-5.7 4-5.2.5-6.2-.8-6.4-2.8zm.7-.1c.1.9.47 1.6 1.6 2l-1.44-13.6c-.1-1-.45-1.6-1.57-2l1.42 13.4zm64.52-35.2l-15.53 1.6 2.17 20.6 15.53-1.7c5.9-.6 7.1-3.7 6.55-9l-.53-4.9c-.46-4.5-3.13-7.2-8.2-6.7zm-7.23 6.5l5.34-.6c2.5-.3 3.28 1.1 3.5 3l.24 2.4c.2 1.9-.2 3.4-2.7 3.7l-5.3.5-.9-9.1zm-4.33 32.8l-.7.1-4.06-38.5 16.25-1.7c5.5-.6 8.4 2.5 8.9 7.2l.5 4.9c.4 4.3-.1 7.3-3.4 8.7l.8-.1c5.8-.6 8.9 1.7 9.4 6.7l1 9.5-.8.1-1-9.6c-.5-4.7-3.3-6.7-8.7-6.1l-20.2 2.1 1.7 16.5zm5.8 5.8c1.8-.2 2.5-1.1 2.3-2.8l-1.47-14 9.98-1.1c2-.3 2.8.6 3.1 2.7l1.2 10.9c.2 1.8 1.1 2.5 2.9 2.3l11.1-1.2c1.8-.2 2.5-1 2.3-2.8l-1.6-15.1c-.6-6-4.4-9.4-9.7-9.4 2.9-1.6 3.6-4.6 3.2-8.6l-.3-3.3c-.7-7.1-4.6-11.6-15.3-10.5l-23.7 2.5c-1.8.1-2.5 1-2.3 2.8l4.9 46.1c.2 1.8 1.1 2.5 2.9 2.3l11-1.18zm2.3-.2l-8.46 8.6c-.38.5-1.14.8-2.14.9l-10.97 1.2c-2.28.3-3.38-.6-3.62-2.9l-4.8-46.1c-.1-1.2.2-2.1.7-2.7l8.4-8.7c.5-.5 1.2-.8 2.2-.9l23.7-2.5c11.4-1.2 15.3 3.6 16.1 11l.4 3.3c.4 3.5-.1 6.2-1.8 8 4.6.8 8 4.3 8.5 9.9l1.6 15.1c.1 1.2-.1 2.1-.7 2.7l-8.4 8.6c-.4.4-1.1.8-2.1.9l-11 1.2c-2.3.2-3.4-.7-3.6-2.9l-1.1-10.9c-.2-1.6-.7-2.3-2.2-2.1h-.1l.6 5.5c.2 1.3-.1 2.1-.7 2.7zm71.56.9l-33.06 3.4c-2.28.2-3.4-.7-3.63-2.9l-4.85-46.2c-.13-1.3.14-2.1.72-2.8l8.38-8.7c.45-.5 1.2-.8 2.2-.9l33.07-3.4c2.2-.3 3.3.6 3.6 2.9l.9 8.3c.1 1.2-.2 2.1-.8 2.7l-5.6 5.7c1 .4 1.5 1.2 1.6 2.7l.8 7.7c.1 1.3-.2 2.1-.7 2.7l-5.8 6 9.8-1c2.3-.2 3.4.7 3.6 2.9l.8 8.3c.1 1.3-.2 2.1-.8 2.7l-8.5 8.7c-.4.5-1.2.8-2.2.9zm8.3-9.5c1.78-.2 2.48-1.1 2.3-2.9l-.9-8.4c-.17-1.8-1.04-2.5-2.82-2.3l-19.66 2.1-.65-6.2 13.9-1.5c1.78-.2 2.48-1.1 2.3-2.9l-.8-7.6c-.2-1.8-1.06-2.5-2.85-2.3l-13.9 1.44-.57-5.5 19.7-2c1.8-.2 2.5-1.04 2.3-2.8l-.9-8.4c-.2-1.8-1-2.5-2.8-2.3l-33 3.46c-1.7.2-2.4 1.1-2.3 2.9l4.9 46.1c.2 1.8 1.1 2.5 2.9 2.3l33.1-3.5zm-4.6-6.7l.07.7-24 2.5-4.05-38.5 24-2.6.1.7-23.3 2.5 1.87 17.9 17.52-1.8.08.7-17.53 1.8 1.94 18.4 23.3-2.5zm30.35 12.6l-14.3 1.6c-2.3.2-3.4-.7-3.6-3l-1.5-14.4c-.1-1.3.1-2.2.7-2.7l8.5-8.8c.4-.5 1.1-.8 2.2-.9l14.4-1.5c2.3-.3 3.3.6 3.6 2.9l1.5 14.4c.1 1.3-.2 2.1-.8 2.7l-8.5 8.6c-.4.5-1.1.8-2.1.9zm8.3-9.5c1.8-.2 2.5-1 2.3-2.8l-1.5-14.5c-.2-1.9-1-2.5-2.8-2.3l-14.4 1.5c-1.7.2-2.5 1-2.3 2.8l1.5 14.4c.2 1.8 1.1 2.5 2.9 2.3l14.4-1.5zm-8.2-5.6l-.7-6.8.7-.1.7 6.8-.7.1zm34.4 11.5l-14.4 1.5c-2.2.3-3.3-.6-3.6-2.9l-1.5-14.4c-.1-1.3.2-2.2.7-2.7l8.5-8.8c.5-.5 1.2-.8 2.2-.9l14.4-1.5c2.3-.3 3.4.6 3.7 2.9l1.5 14.4c.2 1.3-.1 2.1-.7 2.7l-8.5 8.7c-.4.5-1.1.87-2.1.97zm8.3-9.4c1.8-.2 2.5-1.1 2.3-2.9L350 418c-.2-1.86-1-2.5-2.8-2.3l-14.4 1.5c-1.8.2-2.5 1-2.3 2.85l1.5 14.5c.2 1.8 1.1 2.5 2.9 2.3l14.4-1.5zm-8.2-5.6l-.7-6.8.7-.1.7 6.8-.7.1zm34.4 11.4l-14.4 1.5c-2.3.2-3.4-.7-3.6-2.9l-1.5-14.5c-.1-1.3.2-2.2.7-2.7l8.5-8.8c.5-.5 1.2-.8 2.2-.9l14.4-1.6c2.3-.2 3.4.6 3.6 2.9l1.5 14.4c.1 1.3-.1 2.1-.7 2.8l-8.4 8.7c-.4.5-1.1.8-2.1 1zm8.3-9.5c1.8-.2 2.5-1.1 2.3-2.9l-1.5-14.5c-.2-1.9-1-2.5-2.8-2.3l-14.4 1.5c-1.7.1-2.5.9-2.3 2.8l1.5 14.4c.2 1.7 1 2.4 2.8 2.3l14.4-1.5zm-8.2-5.6l-.7-6.7.7-.1.7 6.7-.7.1zm38.1 11.1l-13 1.3c-2.3.2-3.4-.7-3.6-2.9l-.9-9.4c-.2-1.4 0-2.3.6-2.8l1.9-2c-.8-.3-1.4-1-1.8-2.4l-2.5-9.2c-.4-1.4-.2-2.4.6-3.2l6-6.2-9.9 1c-2.2.2-3.3-.6-3.6-3l-.9-8.6c-.1-1.3.2-2.1.7-2.7l8.4-8.78c.5-.5 1.2-.8 2.2-.9l23-2.4c9.8-1 16 3.1 16.9 11.6l.8 7.5c.5 4.6-.6 7.7-2.7 10l-8.4 8.7c-1 1-2 1.74-3.3 2.4l1 9.46c.2 1.3-.1 2.1-.7 2.8L416 436c-.4.5-1.1.83-2.1.94zm14.3-29.8c6.7-1.6 10.7-5 9.8-13l-.8-7.5c-.8-8.1-6.8-12-16-11l-23 2.4c-1.8.2-2.5 1-2.3 2.8l.9 8.6c.2 1.9 1.1 2.5 2.9 2.3l19.7-2.1c1.2-.2 2 .4 2.1 1.8.2 1.4-.2 2-1.7 2.4l-14 3.5c-1.8.4-2.5 1.3-2.1 3.1l2.5 9.3c.5 1.8 1.3 2.3 3 1.9l19.1-4.65zm-16.9-3l-.2-.8L426 400c1.75-.5 3.4-1 3.16-3.5l-.86-8.07c-.5-4.6-3.7-5.46-6.6-5.16l-19.18 2-.05-.7 19.16-2c3.3-.35 6.9.6 7.4 5.8l.9 8.05c.3 2.9-1.45 3.8-3.63 4.3L411 404.5zm11 23.3c1.8-.2 2.5-1.1 2.3-2.8l-.9-9.3c-.2-1.9-1-2.5-2.8-2.3l-13 1.4c-1.8.2-2.5.9-2.3 2.8l1 9.3c.2 1.8 1 2.5 2.8 2.3l13-1.4zm-7.5-4.9l-.3-3.1.7-.1.4 3-.7.1z" fill="#000"/><path d="M67.35 365l-2.48 12.5 12.53-1.3-5.03-11.74c-.5-.92-1.02-1.27-1.66-1.2l-1.9.2c-.6.08-1.1.53-1.3 1.53zm-.58 38.3c.2 1.98-.57 2.95-2.57 3.16l-11.73 1.24c-2 .2-2.96-.58-3.17-2.57l-2.22-21.07c-.33-3.2.2-7.28 1.77-13.1l5.04-18.84c.4-1.9 1.6-2.84 3.7-3.06L79 346.8c2.1-.22 3.44.45 4.27 2.22l8.84 17.38c2.8 5.36 4.2 9.25 4.5 12.44l2.2 21.07c.3 2-.5 3-2.5 3.2l-12 1.3c-2.1.3-3.2-.5-3.4-2.5l-1.1-11.1-14.1 1.5 1.2 11.2zm57.12-3.1c2-.22 2.7-1.2 2.5-3.18l-2.8-26.34 15.3 15.1 1 9.8c.2 2 1.2 2.78 3.2 2.57l11.9-1.25c2-.3 2.8-1.2 2.5-3.2l-5.4-51.7c-.3-2-1.2-2.8-3.2-2.6l-11.9 1.2c-2 .2-2.8 1.1-2.6 3.1l1.8 17-17.4-16.1c-1.5-1.5-2.9-1.9-5-1.7l-8.3.9c-2 .2-2.8 1.14-2.6 3.14l5.4 51.7c.2 2 1.1 2.8 3.1 2.6l12-1.24zm74.3-7.83c2-.2 2.8-1.18 2.5-3.17l-1.1-10.14 10.4-17.7c2-3.53 2.5-5.2 2-10.14l-1.6-15.33c-.2-2-1.2-2.8-3.2-2.6l-11.9 1.2c-2 .2-2.8 1.2-2.6 3.2l1.3 13.1c.1 1.1.2 2.2-.4 3.4l-3.1 6.1c-.5 1-.9 1.4-1.8 1.5l-.8.1c-.9.1-1.4-.3-2.1-1.2l-4.3-5.4c-.8-1.1-1-2.2-1.1-3.3l-1.3-13c-.2-2-1.2-2.8-3.2-2.6l-12.3 1.3c-2 .2-2.8 1.2-2.6 3.1l1.6 15.3c.5 4.9 1.2 6.5 4 9.5l13.9 15.1 1.1 10.2c.2 2 1.1 2.8 3.2 2.6l12.9-1.4z" fill="#F8EF4F"/><path d="M55.45 378.35l.24 2.2 27.7-2.9-.3-2.22c-.3-2.56-.9-4.66-1.9-6.5l-6.2-11.1c-1.4-2.38-2.3-4.15-5-3.88l-7 .74c-2.9.3-3.5 2.2-4.1 4.7l-3.3 12.2c-.5 2-.8 4.2-.5 6.7zm9.85-15.94c.27-.9.66-1.3 1.23-1.3l1.78-.2c.6 0 1.1.3 1.5 1.1l4.5 10.5-11.2 1.2 2.2-11.2zm19.54 28.2l-1.3-12.2-27.78 2.9 1.3 12.3-.72.1-1.6-15.1c-.28-2.6-.08-4.9.5-7l3.32-12.2c.8-2.7 1.43-4.9 4.7-5.2l7-.7c3.12-.3 4.2 1.6 5.62 4.3l6.14 11.1c1 2 1.66 4.2 1.93 6.8l1.6 15.2-.7.1zm-20.05 6l-1.1-9.9 12.6-1.3 1 10c.2 1.8 1.1 2.5 3 2.3l10.7-1.1c1.8-.2 2.5-1 2.3-2.8l-1.9-18.9c-.3-2.8-1.6-6.3-4-11.1l-7.9-15.5c-.8-1.5-2-2.1-3.8-1.9l-19.2 2c-2 .2-3 1-3.4 2.7l-4.5 16.8c-1.4 5.2-1.9 8.8-1.6 11.7l2 18.8c.1 1.8 1 2.5 2.8 2.3l10.5-1.1c1.8-.2 2.5-1.1 2.3-2.8zM56.3 408c-.4.47-1.15.84-2.14.94L43.7 410c-2.27.23-3.37-.66-3.6-2.94l-2-18.8c-.3-2.93.18-6.65 1.64-12l4.43-16.74c.2-.87.56-1.5 1-2.04l.07-.08 8.32-8.58c.7-.8 1.68-1.2 3.03-1.33l19.1-2c2.2-.3 3.6.4 4.5 2.3l7.9 15.5c2.5 4.9 3.7 8.4 4 11.4l2 18.8c.1 1.3-.2 2.1-.7 2.7l-8.4 8.7c-.4.4-1.2.8-2.2.9L72.1 407c-2.4.25-3.6-.7-3.8-2.9l-1-9.28-2 .2.18 1.5c.18 1.3-.1 2.1-.7 2.75l-8.43 8.67zm58.1-58.76l29.3 26.74-3.16-30.07h.7l4.06 38.5-.7.1-.76-7.3-30.1-27.4c-.16-.1-.24-.2-.38-.2-.15.1-.13.2-.12.3l3.94 37.6-.7.1-4-37.7c-.04-.6.36-.9.78-.9.42 0 .6.1 1.13.6zm8.5 43.9c1.8-.2 2.5-1.04 2.3-2.83l-2.5-23.5 13.74 13.5.92 8.8c.17 1.8 1.04 2.5 2.82 2.3l10.7-1.1c1.76-.2 2.46-1 2.27-2.8l-4.84-46.1c-.2-1.8-1-2.5-2.8-2.3l-10.6 1.1c-1.8.2-2.5 1.1-2.3 2.8l1.6 15.2-15.5-14.3c-1.3-1.3-2.5-1.7-4.4-1.5l-7.4.8c-1.8.2-2.5 1.1-2.3 2.8l4.8 46.2c.2 1.8 1 2.5 2.8 2.3l10.7-1.1zm2.3-.16l-8.48 8.67c-.38.47-1.14.84-2.13.94l-10.7 1.1c-2.3.2-3.4-.7-3.6-3l-4.9-46.2c-.2-1.3.1-2.1.7-2.8l8.4-8.7c.4-.5 1.2-.8 2.2-.9l7.4-.8c2-.3 3.4.2 5 1.6l5.5 5.1 7.8-8.1c.4-.5 1.2-.8 2.2-.9l10.7-1.2c2.3-.2 3.4.7 3.6 3l4.8 46.1c.1 1.3-.2 2.1-.7 2.8l-8.5 8.6c-.4.5-1.2.8-2.2.9l-10.7 1.1c-2.3.2-3.4-.7-3.6-2.9l-.9-8.5-1.8-1.8.2 2.6c.2 1.2-.1 2.1-.7 2.7zm62.92 1.9L176.6 396c-2.35.25-3.38-.65-3.62-2.93l-.94-8.92-12.27-13.26c-2.6-2.9-3.33-4.3-3.8-8.9l-1.45-13.7c-.14-1.3.14-2.1.72-2.8l8.37-8.8c.5-.5 1.3-.8 2.3-.9l11-1.2c2.3-.3 3.4.6 3.7 2.9l1.3 11.7c.1.8.2 1.7.8 2.5l1 1.1-.8-7.8c-.1-1.3.2-2.1.7-2.8l8.4-8.7c.5-.5 1.2-.8 2.2-.9l10.6-1.1c2.3-.2 3.4.7 3.7 2.9l1.4 13.7c.5 4.6.1 6.2-1.9 9.5l-9.1 15.6.9 8.8c.1 1.3-.1 2.1-.7 2.7l-8.4 8.6c-.3.5-1.1.9-2.1 1zm8.3-9.46c1.78-.2 2.48-1.05 2.3-2.83l-.96-9.1 9.27-15.9c1.83-3.2 2.25-4.7 1.78-9.1l-1.4-13.6c-.2-1.8-1-2.5-2.8-2.3l-10.6 1.1c-1.7.2-2.4 1-2.3 2.8l1.3 11.7c.1 1 .2 2-.3 3l-2.7 5.5c-.4.9-.8 1.3-1.6 1.4l-.7.1c-.8.1-1.2-.3-1.8-1.1l-3.8-4.8c-.7-.9-.8-1.9-.9-2.9l-1.2-11.7c-.1-1.8-1-2.5-2.8-2.3l-11 1.1c-1.8.2-2.5 1-2.3 2.8l1.5 13.7c.5 4.4 1.1 5.8 3.6 8.4l12.5 13.5 1 9.1c.2 1.8 1 2.5 2.8 2.3l11.6-1.2zm-6.88-18.08l-.5.03 1.3 12.2-.73.06-1.2-12.2-.7.07c-2.1.22-3.7-.47-5.5-2.44l-7.9-8.9c-1.2-1.3-1.4-3.3-1.6-5.37l-.8-8.2.8-.1.9 8.2c.2 2 .5 3.7 1.5 5.1l8 8.9c1.5 1.7 3.2 2.2 4.9 2l1.9-.2c1.8-.2 3.2-1.1 4.4-3.1l6.1-10.4c.9-1.4.7-3.3.4-5.3l-.8-8.2.7-.1.9 8.2c.2 2 .5 3.9-.5 5.6l-6.1 10.3c-1.3 2.2-2.7 3.3-5 3.5z" fill="#000"/><path d="M155.68 313.27l-85.9 9.03c-5.6.6-8.32-1.6-8.9-7.2l-15.26-145c-.6-5.6 1.62-8.3 7.2-8.9l71.38-7.5c29.3-3.08 44.1 6.22 46.56 29.7l1.13 10.75c1.3 12.53-2.2 20.8-10.7 25.55 19.4-.23 29.5 9.8 31.8 31.72l2.2 20.58c2.6 25.06-9.8 38.12-39.6 41.25zM99.12 194.8l2.54 24.17 19.02-2c5.8-.6 8.2-3.8 7.56-9.84l-.66-6.27c-.64-6.04-3.63-8.66-9.44-8.05l-19.02 2zm6.16 58.62l2.78 26.4 29.08-3.05c5.82-.62 8.2-3.8 7.56-9.85l-.92-8.72c-.63-6.04-3.6-8.44-9.4-7.83l-29.1 3.05zm234.96 40.45c5.6-.58 7.8-3.3 7.2-8.9l-2.75-26.17c-.6-5.6-3.3-7.8-8.9-7.2l-61.8 6.48-2-19.24 43.6-4.6c5.6-.57 7.8-3.3 7.2-8.9l-2.5-23.93c-.6-5.5-3.3-7.7-8.9-7.2l-43.7 4.6-1.8-17.2 61.7-6.5c5.6-.6 7.8-3.3 7.2-8.9l-2.7-26.2c-.6-5.6-3.3-7.8-8.9-7.2l-103.8 10.9c-5.6.6-7.8 3.3-7.2 8.9l15.2 145c.6 5.6 3.3 7.8 8.9 7.2l103.8-10.9z" class="hello" fill="#4FF8D9"/><path d="M42.74 345.78c-7.02.74-10.4-2-11.15-9.03l-15-142.2c-.4-3.96.4-6.5 2.2-8.45l25.8-26.9c1.4-1.47 3.7-2.38 6.8-2.7l70-7.36c30.7-3.23 45.5 6.97 48.1 31.1l1.1 10.54c1.1 10.3-1 17.86-6 22.82l-.6.5c16.3 1.84 25.2 12.22 27.4 32.85l2.1 20.2c1.4 13.16-1.4 22.98-8.4 30.16l-25.8 26.9c-6.6 6.9-17.3 11.2-32.4 12.8l-84.2 8.8zm109.84-37.95c29.18-3.06 41.37-15.88 38.8-40.46l-2.13-20.2c-2.27-21.5-12.17-31.33-31.23-31.1 8.4-4.65 11.75-12.77 10.46-25.06l-1.1-10.5c-2.43-23-16.93-32.1-45.67-29.1l-70 7.4c-5.4.6-7.6 3.3-7 8.8l15 142.2c.6 5.5 3.3 7.7 8.8 7.1l84.3-8.9zM141.72 289l-59.03 6.2-12.5-118.5 44.5-4.67c24.3-2.56 29.8 7.5 31.2 20.24l1.4 14.04c.9 8.8.2 16.9-12 21.5 24.3-2.5 29.6 7.8 31.2 22.3l1.4 14.1c1.3 13-1.9 22.4-26.5 25zm-26.7-114.78l-42.36 4.45 5.8 55.08 42.34-4.45c24.14-2.54 25.57-12.23 24.46-22.76l-1.48-14.04c-1.24-11.85-6.6-20.6-28.77-18.28zm-17.92 17.4l18.65-1.95c5.7-.6 8.64 1.98 9.26 7.9l.7 6.15c.6 5.93-1.7 9.05-7.4 9.65l-18.6 1.97-2.5-23.7zm38.64 38.33l-57.06 6 5.97 56.84 56.84-6c21.9-2.3 25.7-10.5 24.4-22.6l-1.5-14.1c-1.4-13.2-6.6-22.6-28.8-20.3zm-32.6 19.18l28.53-3c5.7-.6 8.62 1.76 9.24 7.68l.9 8.6c.7 6-1.7 9.1-7.4 9.7l-28.5 3-2.7-25.9zM312.8 317.4l-101.84 10.7c-7.02.74-10.4-2-11.15-9.03l-14.9-142.2c-.4-3.96.5-6.5 2.2-8.45l25.8-26.9c1.4-1.47 3.8-2.38 6.8-2.7l101.9-10.7c7-.75 10.4 2 11.2 9.02l2.7 25.68c.4 3.95-.4 6.48-2.2 8.44L316 188.83c3 1.23 4.63 3.95 5.1 8.56l2.48 23.4c.4 3.9-.4 6.5-2.2 8.4l-17.8 18.5 30.28-3.2c7.04-.8 10.43 2 11.17 9l2.7 25.7c.4 3.9-.42 6.5-2.2 8.4l-26.04 26.7c-1.2 1.4-3.5 2.5-6.6 2.9zm25.55-29.1c5.5-.57 7.65-3.24 7.07-8.72l-2.7-25.68c-.57-5.48-3.24-7.64-8.73-7.07l-60.6 6.37-2-18.87 42.8-4.5c5.5-.58 7.6-3.25 7-8.73l-2.5-23.48c-.6-5.5-3.3-7.65-8.8-7.07l-42.8 4.5-1.8-16.9 60.5-6.37c5.5-.58 7.6-3.24 7.1-8.73l-2.7-25.68c-.6-5.48-3.3-7.64-8.8-7.07L219.9 141c-5.5.58-7.64 3.25-7.07 8.74l14.95 142.2c.6 5.5 3.3 7.65 8.78 7.07l101.82-10.7zm-14.15-20.7l.23 2.2-73.96 7.78-12.45-118.5 73.95-7.78.23 2.2-71.76 7.54 5.8 55.08 53.98-5.67.23 2.2-54 5.66 6 56.9 71.75-7.5z" fill="#000"/><path d="M50.22 148.56c2-.2 2.78-1.18 2.57-3.17l-4.2-39.2 11.7-1.3c2-.2 2.7-1.2 2.5-3.2l-1-9.7c-.2-2-1.2-2.8-3.2-2.6l-42 4.5c-2 .2-2.8 1.1-2.6 3.1l1 9.6c.2 2 1.2 2.7 3.2 2.5l11.7-1.2 4.1 39.2c.2 2 1.2 2.8 3.1 2.6l12.9-1.3zm40.46-4.25c2-.2 2.78-1.1 2.57-3.1l-1.86-17.7 13.3-1.4 1.8 17.7c.2 2 1.2 2.8 3.1 2.6l12.3-1.3c2-.2 2.8-1.1 2.5-3.1L119 86.3c-.2-2-1.15-2.8-3.15-2.6L103.6 85c-2 .2-2.8 1.2-2.58 3.17l1.8 17.33-13.33 1.4-1.8-17.35c-.2-2-1.2-2.8-3.2-2.57l-12.4 1.3c-2 .2-2.8 1.15-2.6 3.15l5.4 51.7c.2 2 1.1 2.8 3.1 2.6l12.4-1.3zm46.92-4.9l34-3.6c2-.2 2.78-1.1 2.57-3.1l-1-9.5c-.2-2-1.18-2.8-3.18-2.5l-7.8.8-2.8-26.8 7.7-.8c2-.2 2.8-1.2 2.5-3.2l-1-9.6c-.2-2-1.2-2.8-3.2-2.5l-34 3.6c-2 .2-2.8 1.2-2.6 3.2l1 9.7c.2 2 1.2 2.8 3.2 2.6l7.9-.8 2.8 26.8-7.9.9c-2 .2-2.8 1.2-2.6 3.2l1 9.5c.2 2 1.2 2.8 3.2 2.6zm73.34-7.7c10.3-1.1 16-6.7 15.04-15.8l-.88-8.3c-.94-8.9-6.22-11.6-13.84-11.9l-12.06-.3c-1.37 0-2.27-.9-2.42-2.3-.15-1.4.54-2.4 1.9-2.6l18.6-1.9c2-.2 2.77-1.2 2.56-3.1l-1-9.5c-.2-2-1.17-2.7-3.17-2.5l-22.34 2.4c-10.38 1.1-16 6.7-15.05 15.8l.88 8.4c.94 9 6.15 11.6 13.77 12l12.14.4c1.38.1 2.17.7 2.36 2.5.14 1.3-.47 2.4-1.83 2.6l-21.47 2.3c-2 .2-2.78 1.2-2.57 3.2l1 9.4c.2 2 1.16 2.8 3.16 2.6l25.22-2.7z" fill="#F8EF4F"/><path d="M40.47 153.84l-11.55 1.2c-2.28.25-3.38-.64-3.62-2.92l-3.6-34.27-9.76 1.02c-2.28.24-3.38-.65-3.62-2.93l-.9-8.62c-.14-1.3.13-2.1.7-2.74l8.4-8.74c.44-.48 1.2-.77 2.2-.88L56.34 91c2.28-.23 3.38.66 3.62 2.94l.9 8.62c.14 1.3-.13 2.1-.7 2.74l-8.47 8.67c-.4.48-1.2.84-2.2.95l-.6.06 2.8 26.5c.1 1.28-.2 2.1-.8 2.74l-8.5 8.67c-.4.4-1.2.8-2.2.9zm8.3-9.45c1.78-.2 2.48-1.1 2.3-2.9l-3.68-35 10.4-1.1c1.8-.2 2.5-1.1 2.3-2.8l-.9-8.6c-.2-1.8-1.1-2.5-2.9-2.3l-37.6 3.9c-1.8.2-2.5 1-2.3 2.8l.9 8.6c.2 1.8 1 2.5 2.8 2.3l10.4-1.1 3.7 35c.2 1.8 1 2.5 2.8 2.3l11.5-1.2zm-6.8-5.8L38 100.8l-14.6 1.54-.08-.7 29.92-3.16.08.7-14.6 1.56 3.96 37.73-.7.05zm43.46-4.6l-4.05-38.5.72-.1 1.98 18.9 27.36-2.9-1.98-18.9.7-.1 4.04 38.5h-.7l-1.95-18.9-27.35 3 1.9 18.8-.7.1zm6.6 5.8c1.77-.2 2.47-1.1 2.28-2.9l-1.6-15.8 11.9-1.3 1.7 15.8c.2 1.8 1.1 2.5 2.9 2.3l11.1-1.2c1.8-.2 2.5-1.1 2.3-2.9l-4.9-46.2c-.2-1.8-1-2.5-2.8-2.3l-11 1.2c-1.8.1-2.5 1-2.3 2.8L103 105l-11.9 1.26-1.6-15.46c-.2-1.78-1.06-2.48-2.85-2.3L75.6 89.7c-1.8.2-2.5 1.05-2.3 2.83l4.85 46.17c.18 1.8 1.05 2.5 2.83 2.3l11.05-1.15zm2.27-.2l-8.45 8.6c-.38.4-1.14.8-2.13.9l-11.05 1.1c-2.28.2-3.38-.7-3.62-3l-4.85-46.1c-.14-1.3.14-2.1.72-2.8l8.37-8.8c.4-.5 1.2-.8 2.2-.9l11-1.2c2.3-.2 3.4.7 3.6 2.9l1.5 14.7 1.3-.2-.8-7c-.2-1.3.1-2.1.7-2.8l8.3-8.8c.4-.5 1.2-.8 2.2-.9l11-1.2c2.2-.3 3.3.6 3.6 2.9l4.9 46.2c.1 1.2-.2 2.1-.8 2.7l-8.5 8.7c-.4.4-1.1.8-2.1.9l-11.1 1.2c-2.3.22-3.4-.6-3.7-2.9l-1.5-15-1.3.1.8 7.3c.1 1.23-.2 2.1-.7 2.7zm68.8 1.2l-30.36 3.2c-2.28.2-3.4-.7-3.63-3l-.8-8.5c-.1-1.3.2-2.1.7-2.8l7.9-8.2-1.6-15.9-6.3.7c-2.3.2-3.4-.7-3.6-3l-.9-8.7c-.1-1.3.2-2.1.7-2.8l8.4-8.7c.5-.5 1.2-.8 2.2-.9l30.4-3.2c2.3-.2 3.4.6 3.6 2.9l.9 8.6c.2 1.3-.1 2.1-.7 2.7l-7.7 8 1.7 16 6.2-.7c2.3-.2 3.4.7 3.7 2.9l.9 8.5c.2 1.3-.1 2.1-.7 2.7l-8.4 8.6c-.4.5-1.1.8-2.1.9zm-22.06-6.3l30.35-3.2c1.7-.2 2.4-1.1 2.2-2.9l-.9-8.5c-.2-1.8-1.1-2.5-2.8-2.3l-6.9.7-2.6-24 6.9-.7c1.8-.2 2.5-1.1 2.3-2.9l-.9-8.7c-.2-1.8-1.1-2.5-2.9-2.3L135.4 83c-1.8.17-2.5 1.04-2.3 2.8l.9 8.64c.2 1.8 1.1 2.5 2.8 2.3l7.05-.74 2.54 24-7.1.76c-1.8.18-2.5 1.05-2.3 2.83l.9 8.4c.2 1.8 1 2.5 2.8 2.3zm25.83-9.2l-22.66 2.4v-.7l11.1-1.2-3.9-37.1-11 1.2v-.7l22.6-2.3.1.7-10.9 1.2 3.9 37 10.9-1.2.1.8zm15.95 13.3c-2.28.2-3.38-.7-3.62-3l-.87-8.4c-.14-1.3.14-2.1.72-2.8l6.5-6.8c-5.23-1.1-8.64-4-9.37-10.9l-.78-7.5c-.45-4.3.62-7.8 3.1-10.3l8.44-8.8c2.34-2.4 6.06-4 10.9-4.6l19.96-2c2.23-.2 3.33.6 3.6 2.9l.9 8.4c.1 1.3-.17 2.1-.76 2.7l-5.85 6c6.2.72 10.4 3.5 11.2 11.2l.7 7.5c.4 4.3-.6 7.8-3.2 10.4l-8.4 8.6c-2.4 2.5-6.1 4.1-10.9 4.6l-22.5 2.3zm30.82-11.8c9.2-1 14.28-6 13.43-14.1l-.8-7.5c-.83-8-5.54-10.4-12.34-10.7l-10.77-.3c-1.23-.1-2.03-.8-2.16-2.1-.14-1.3.48-2.2 1.7-2.4l16.6-1.7c1.78-.2 2.48-1.1 2.3-2.9l-.9-8.5c-.2-1.7-1.05-2.4-2.83-2.3l-19.95 2.1c-9.27 1-14.3 6-13.43 14.1l.7 7.5c.8 8 5.5 10.4 12.3 10.7l10.8.4c1.2 0 1.9.6 2.1 2.3.1 1.1-.4 2.1-1.7 2.2l-19.2 2c-1.8.2-2.5 1.1-2.3 2.9l.9 8.3c.2 1.8 1 2.5 2.8 2.3l22.5-2.4zm1.05-45.5v.7l-15.8 1.6c-4 .4-6.3 3.1-6 6.4l.6 5.8c.3 3.3 1.9 4.2 4.1 4.4L213 102c2.93.26 5.14 1.47 5.67 6.46l.42 4.1c.4 4.2-2.4 7.5-7.2 8.02l-17.8 1.84-.1-.7 17.7-1.8c4.4-.48 6.9-3.48 6.5-7.25l-.5-4.15c-.5-4.5-2.3-5.5-5-5.8l-15.4-1.5c-2.5-.23-4.4-1.1-4.8-5.04l-.6-5.83c-.4-3.77 2.1-6.77 6.5-7.24l15.8-1.7z" fill="#000"/><path d="M53.82 80.44c2-.2 2.78-1.18 2.57-3.17l-1-9.5c-.2-2-1.2-2.78-3.2-2.57l-16.1 1.7c-3.4.34-5-.7-5.3-3.33l-2-19c-.3-2.7 1.1-4.14 4.4-4.5l16.1-1.67c2-.22 2.8-1.2 2.5-3.18l-1-9.66c-.2-2-1.2-2.78-3.2-2.57l-19.4 2c-13.4 1.4-19.1 7.2-17.9 18.4L13 68.3c1.18 11.1 7.95 15.62 21.35 14.2l19.47-2.04zm58.6-21.4c1 9.73-3.1 16.78-23.04 18.88-19.95 2.1-25.5-3.94-26.53-13.67L60 37.05c-1.03-9.75 3.14-16.9 23.1-18.98 19.94-2.1 25.42 4.02 26.45 13.76l2.86 27.2zm-31.76.43c.23 2.15 1.36 3.65 7.1 3.05 5.83-.62 6.54-2.3 6.3-4.46L91.82 36.6c-.2-2.08-1.25-3.58-7.07-2.97-5.75.6-6.54 2.3-6.32 4.37l2.26 21.47zm90.8-6.64l-4.15-39.5c-.2-2-1.1-2.78-3.1-2.57L152 12.03c-2.07.22-2.78 1.18-2.57 3.18l3.83 36.4c.22 2.2-.57 3.9-6.23 4.5-5.6.6-6.7-.9-6.94-3l-3.9-36.4c-.2-2-1.2-2.7-3.2-2.5l-12.5 1.3c-2 .2-2.8 1.2-2.6 3.2l4.1 39.5c1 9.8 6.6 15.8 26.3 13.7 19.8-2.1 24-9.1 22.9-18.9zm55.7 9.4c1.98-.2 2.77-1.18 2.56-3.18l-2.64-25.13c-.2-2-1.18-2.78-3.18-2.58l-11.57 1.22c-2 .2-2.78 1.18-2.57 3.18l1.36 12.92-10.93 1.15-4.2-39.5c-.2-1.9-1.2-2.7-3.2-2.5l-12.4 1.3c-2 .2-2.8 1.2-2.6 3.2l5.4 51.7c.2 2 1.1 2.8 3.1 2.6l40.7-4.3zm41.72-4.4l-26.9 2.84c-1.98.2-2.95-.58-3.16-2.57l-5.44-51.7c-.2-2 .58-2.98 2.57-3.2l26.9-2.8c13.4-1.4 20.17 3.13 21.34 14.22l2.6 24.9c1.1 11.1-4.5 16.93-18 18.34zM252.8 16.86L255.65 44l9.5-1c2.55-.27 3.62-1.6 3.33-4.3l-2.03-19.4c-.28-2.63-1.6-3.7-4.16-3.44l-9.5 1z" fill="#F8EF4F"/><path d="M40.03 86.14l-17.38 1.83C10.1 89.3 3.67 82.83 2.58 72.5L.48 52.48c-.56-5.27.54-9.2 3.26-12.08l8.45-8.74c2.6-2.8 7-4.5 13.2-5.15l17.4-1.8c2.2-.2 3.3.7 3.6 3l.9 8.6c.1 1.3-.2 2.1-.7 2.8l-8.5 8.7c-.4.5-1.2.9-2.2 1l-8.8 1 1.2 12c.2 2 1.5 2.6 3.9 2.4l14.3-1.5c2.2-.2 3.3.6 3.6 2.9l.9 8.5c.1 1.3-.2 2.1-.8 2.8L42 85.3c-.4.45-1.12.82-2.12.92zm8.3-9.44c1.78-.2 2.5-1.05 2.3-2.84l-.9-8.47c-.18-1.8-1.05-2.5-2.83-2.3l-14.32 1.5c-3 .3-4.46-.7-4.7-3l-1.8-17c-.24-2.5 1-3.7 3.98-4l14.33-1.5c1.7-.2 2.4-1.1 2.2-2.9l-.9-8.7c-.2-1.8-1.1-2.5-2.9-2.3l-17.3 1.9c-12 1.2-17.1 6.5-16 16.4l2.4 22.2c1 9.9 7 14 19 12.7l17.3-1.8zM43.66 70l.08.7-11.9 1.25c-9.26.97-11.67-1.37-12.36-8L17.38 44c-.7-6.75 1.3-9.56 10.42-10.52l11.9-1.25.07.72-11.9 1.25c-8.4.87-10.45 3.4-9.78 9.73l2.1 19.95c.6 6.2 3 8.26 11.5 7.36L43.6 70zm53.3 6.7c-3.05 3.2-8.58 5.44-18.06 6.44-18.66 1.96-23.75-6-24.7-14.98L51.9 46c-.47-4.42.2-8.3 3.13-11.35l8.46-8.67c3-3.2 8.5-5.43 18-6.44 18.7-1.96 23.5 3.95 24.4 12.93l2.5 24.3c.4 4.4-.2 8.23-3.2 11.27L97 76.7zm10.8-19.86l-2.55-24.3c-.9-8.7-5.8-14.16-23.6-12.28C63.8 22.13 60.1 28.5 61 37.2l2.56 24.3c.9 8.66 5.87 14.05 23.68 12.2 17.83-1.9 21.5-8.2 20.57-16.88zm-7.93-.82c.6 5.77-2.27 9.96-13.46 11.13-11.18 1.18-14.72-2.34-15.33-8.1L68.84 38c-.6-5.77 2.12-9.95 13.3-11.12C93.34 25.72 97 29.23 97.62 35l2.2 21.02zm-28.08 2.95c.57 5.34 3.93 8.6 14.55 7.47 10.6-1.1 13.38-5 12.8-10.35L96.9 35c-.56-5.34-4.07-8.58-14.68-7.46-10.62 1.12-13.24 5-12.68 10.34l2.2 21.03zm7.67-1.75l-2-19.16c-.2-1.86.5-3.37 5.63-3.9 5.2-.56 6.13.8 6.33 2.64l2 19.17c.2 1.92-.42 3.43-5.62 3.97-5.13.54-6.14-.8-6.34-2.72zm.7-.07c.1.92.47 1.6 1.6 2L80.28 45.6c-.1-.92-.47-1.6-1.58-1.92l1.4 13.47zm58.7 19.7c-18.52 1.94-23.6-6.03-24.55-15L110.8 28.7c-.15-1.27.13-2.1.7-2.73l8.38-8.73c.46-.48 1.22-.78 2.22-.88l11.18-1.18c2.28-.24 3.38.66 3.62 2.94l3.42 32.5c.1.84.38 1.53 1.35 1.86l-2.8-26.72c-.14-1.28.06-2.1.58-2.65h.06l8.5-8.7c.5-.5 1.2-.7 2.2-.9l10.8-1.1c2.3-.2 3.4.7 3.7 3l3.7 35.3c.5 4.4-.2 8.3-3.1 11.3l-8.5 8.7c-3 3.2-8.5 5.5-17.9 6.5zm28.8-26.3l-3.7-35.27c-.2-1.78-1.07-2.48-2.85-2.3l-10.83 1.14c-1.85.2-2.48 1.05-2.3 2.84l3.42 32.5c.2 1.9-.5 3.42-5.56 3.96-5 .52-6-.8-6.2-2.74l-3.4-32.5c-.2-1.77-1.06-2.47-2.84-2.28l-11.2 1.17c-1.77.2-2.47 1.06-2.3 2.84l3.72 35.3c.92 8.7 5.88 14.1 23.55 12.2 17.67-1.8 21.4-8.1 20.48-16.8zm-39.5-27.62l.7-.07 3.13 29.7c.56 5.35 3.86 8.6 14.48 7.5 10.6-1.13 13.23-5 12.67-10.35L155.98 20l.7-.07 3.13 29.7c.7 5.78-2.1 9.96-13.3 11.13-11.2 1.18-14.6-2.35-15.2-8.12l-3.1-29.7zm88.04 44.7l-36.26 3.8c-2.28.25-3.4-.64-3.63-2.92l-4.85-46.1c-.13-1.3.14-2.1.72-2.7l8.38-8.7c.45-.4 1.2-.7 2.2-.8L193.77 9c2.28-.25 3.4.64 3.62 2.92l3 29 .1-.16 8.4-8.75c.4-.5 1.2-.8 2.2-.9l10.3-1.1c2.2-.2 3.3.7 3.6 3l2.3 22.5c.1 1.3-.2 2.1-.7 2.8l-8.5 8.7c-.4.5-1.2.8-2.2.9zm8.3-9.44c1.78-.2 2.48-1.1 2.3-2.9l-2.36-22.4c-.2-1.8-1.06-2.5-2.84-2.3l-10.33 1.1c-1.78.2-2.48 1-2.3 2.8l1.22 11.5-9.76 1-3.8-35.3c-.2-1.8-1.1-2.5-2.9-2.3l-11 1.1c-1.8.2-2.5 1-2.3 2.8l4.8 46.1c.2 1.8 1 2.5 2.8 2.3l36.3-3.7zM192.72 55l-4.04-38.47.7-.08 3.98 37.75 24.8-2.6-1.48-14.04.7-.07 1.56 14.7-26.22 2.8zm81.1 2.7c-2.65 2.8-7.07 4.58-13.27 5.23l-24 2.52c-2.3.23-3.4-.66-3.63-2.94l-4.86-46.1c-.13-1.3.14-2.1.72-2.7l8.38-8.7c.45-.4 1.22-.7 2.2-.8l24.04-2.5c12.54-1.3 18.76 3 19.85 13.3l2.33 22.3c.55 5.2-.55 9.2-3.27 12l-8.4 8.7zm-4.97-4.22c11.97-1.25 17.04-6.46 16-16.37l-2.35-22.2C281.48 5 275.44 1 263.47 2.3l-24 2.53c-1.8.18-2.5 1.05-2.3 2.83L242 53.7c.2 1.78 1.06 2.48 2.84 2.3l24-2.53zm-19.48-4.42l-4.05-38.5 17.25-1.8c9.7-1.02 11.86 3.22 12.44 8.7l2 18.9c.6 5.47-.5 9.84-10.4 10.87l-17.2 1.82zm13.27-39.6L246.1 11.2l3.9 37.1 16.53-1.74c9.12-.96 10.3-4.9 9.75-10.1l-2-18.88c-.53-5.2-2.66-9-11.64-8.07zm-8.15 7.42l8.4-.9c2.3-.23 3.4.73 3.7 3.08l1.8 17.3c.2 2.44-.7 3.62-3 3.86l-8.5.9-2.6-24.24zm3.1 11c-.2-1.3-.6-2.1-1.5-2.38l1.5 14.82 1.2-.13-1.3-12.3z" fill="#000"/></g></svg>
